<?xml version="1.0" standalone="no"?>
<!DOCTYPE svg PUBLIC "-//W3C//DTD SVG 20010904//EN"
 "http://www.w3.org/TR/2001/REC-SVG-20010904/DTD/svg10.dtd">
<svg version="1.0" xmlns="http://www.w3.org/2000/svg"
 width="500.000000pt" height="500.000000pt" viewBox="0 0 500.000000 500.000000"
 preserveAspectRatio="xMidYMid meet">
<metadata>
Created by potrace 1.11, written by Peter Selinger 2001-2013
</metadata>
<g transform="translate(0.000000,500.000000) scale(0.100000,-0.100000)"
fill="#000000" stroke="none">
<path d="M2580 4494 c0 -9 -5 -12 -12 -8 -6 4 -8 3 -5 -3 4 -6 -1 -17 -10 -24
-12 -10 -14 -10 -9 -1 4 6 3 12 -3 12 -5 0 -13 -5 -17 -11 -5 -8 -10 -6 -16 5
-5 9 -14 14 -20 10 -6 -4 -5 -10 3 -15 10 -6 7 -8 -10 -7 -32 4 -60 -36 -63
-91 -3 -39 0 -44 20 -47 21 -4 22 -3 8 12 -22 21 -20 47 4 69 11 10 17 23 12
29 -4 7 0 4 9 -5 13 -14 19 -15 37 -5 13 7 19 16 15 21 -4 4 0 5 10 2 10 -4
23 -7 28 -7 4 0 6 -7 3 -15 -4 -9 0 -15 9 -15 9 0 24 -3 34 -7 12 -5 10 1 -10
20 -33 33 -37 61 -7 52 15 -5 20 -2 20 12 0 15 2 16 10 3 7 -12 12 -12 22 -2
9 9 9 12 -1 12 -7 0 -9 5 -6 10 4 6 -7 10 -24 10 -21 0 -31 -5 -31 -16z"/>
<path d="M2715 4500 c-19 -8 -19 -9 2 -9 12 -1 25 4 28 9 7 12 -2 12 -30 0z"/>
<path d="M2325 4450 l-20 -9 20 -1 20 -1 -20 -8 -20 -8 20 -4 c13 -3 16 -7 8
-12 -6 -4 -19 0 -27 9 -13 13 -20 14 -31 4 -17 -14 -20 -50 -4 -50 5 0 7 6 3
13 -5 8 -2 8 9 -2 13 -10 20 -11 30 -2 8 6 18 7 22 3 5 -4 5 -2 2 4 -4 6 2 19
12 28 14 13 20 14 23 4 3 -7 7 -3 10 10 4 12 2 20 -3 16 -5 -3 -9 0 -9 5 0 13
-17 13 -45 1z"/>
<path d="M2720 4419 c0 -5 -6 -7 -12 -3 -9 5 -10 4 -3 -4 6 -6 22 -14 38 -17
23 -6 27 -4 27 14 0 16 -6 21 -25 21 -14 0 -25 -5 -25 -11z"/>
<path d="M2173 4407 c-32 -10 -43 -30 -23 -42 6 -4 8 -10 6 -14 -3 -4 1 -8 9
-8 11 0 12 5 3 20 -5 11 -6 17 -1 14 9 -5 49 32 41 37 -2 2 -18 -2 -35 -7z"/>
<path d="M2658 4382 c9 -10 19 -17 21 -16 6 5 -20 34 -30 34 -5 0 -1 -8 9 -18z"/>
<path d="M1962 4370 c-12 -11 -25 -32 -28 -46 -5 -19 -9 -22 -15 -13 -6 10
-11 5 -19 -15 -6 -16 -8 -31 -5 -34 3 -3 5 0 5 6 0 7 3 12 8 12 4 0 6 -17 4
-38 -4 -43 12 -65 72 -102 42 -25 36 -35 -19 -28 -24 3 -36 -1 -44 -14 -6 -10
-8 -17 -4 -16 5 1 19 -4 31 -11 24 -13 24 -13 -17 -33 l-41 -20 6 -47 c4 -25
7 -54 6 -64 0 -9 2 -15 6 -13 4 2 15 -2 25 -9 17 -12 17 -14 2 -23 -16 -8 -15
-10 4 -15 11 -3 20 -2 19 2 -1 3 6 21 15 39 10 17 15 32 13 32 -5 0 14 23 73
91 42 49 198 130 211 110 6 -11 12 -11 31 2 15 11 26 13 35 7 8 -7 21 -7 40 1
16 7 33 11 38 10 4 -1 22 3 40 8 17 6 49 13 71 17 22 3 43 8 47 10 4 2 10 -1
14 -7 4 -7 21 -9 44 -5 37 6 133 -16 157 -36 7 -5 17 -7 23 -3 6 4 10 3 9 -2
-3 -20 2 -25 16 -13 8 7 15 8 15 3 0 -17 42 -54 55 -49 21 8 145 -119 145
-149 0 -5 5 -3 10 5 8 13 12 12 29 -6 18 -20 18 -23 3 -39 -9 -10 -12 -15 -5
-11 6 3 19 3 28 0 13 -5 14 -9 4 -15 -11 -6 -9 -16 9 -46 12 -21 26 -37 31
-36 5 1 15 -5 22 -15 7 -9 9 -14 5 -10 -10 8 -46 -53 -46 -77 0 -8 -5 -15 -11
-15 -5 0 -8 -4 -4 -9 7 -12 -24 -43 -36 -35 -13 8 1 -79 14 -87 14 -10 37 -81
30 -93 -4 -5 0 -7 10 -3 12 4 14 2 10 -10 -5 -12 -3 -14 8 -8 11 6 12 5 2 -5
-10 -11 -9 -18 8 -36 34 -36 1 -24 -82 31 -134 88 -219 155 -234 185 -31 59
-66 4 -56 -86 1 -6 -10 -16 -24 -22 -23 -11 -24 -10 -18 18 5 25 2 30 -15 30
-26 0 -74 25 -65 34 4 4 -1 4 -10 0 -13 -5 -20 -1 -24 15 -6 22 -18 27 -28 11
-3 -5 -11 -10 -16 -10 -6 0 -7 5 -3 11 5 9 -18 11 -87 7 -61 -3 -84 -2 -64 4
17 4 80 9 140 9 105 2 110 15 6 18 -48 1 -52 8 -8 13 15 2 28 8 28 13 1 13
-32 23 -59 18 -13 -2 -21 0 -18 5 3 5 -7 8 -22 8 -15 0 -46 4 -70 8 -37 7 -47
5 -76 -18 -18 -14 -36 -23 -40 -21 -3 3 -4 2 -2 -1 2 -3 -7 -16 -20 -29 -13
-13 -24 -30 -24 -38 0 -17 -63 -37 -114 -37 -25 0 -36 4 -36 14 0 8 -11 27
-24 41 -29 31 -94 41 -112 17 -9 -12 -13 -12 -19 -2 -6 9 -4 11 5 5 8 -5 11
-4 7 3 -4 5 -16 8 -27 5 -11 -3 -17 -10 -13 -16 3 -6 1 -7 -6 -3 -6 4 -19 2
-27 -5 -12 -10 -13 -9 -8 6 6 14 4 16 -7 10 -8 -5 -20 -17 -27 -27 -7 -10 -21
-18 -30 -18 -12 0 -13 3 -4 12 23 23 12 28 -13 6 -14 -12 -25 -27 -25 -33 0
-7 -26 -18 -57 -25 -32 -8 -67 -20 -78 -27 -11 -7 -27 -13 -37 -13 -22 0 -25
-5 -32 -71 -6 -49 -4 -57 16 -76 l23 -22 -3 60 c-5 80 10 102 90 128 75 24
218 36 273 23 36 -9 31 -10 -49 -11 -77 -1 -87 -3 -76 -16 7 -8 20 -15 29 -15
13 0 14 -2 2 -9 -8 -5 -20 -7 -28 -4 -7 3 -13 -2 -13 -11 0 -9 -4 -16 -8 -16
-4 0 -8 -8 -9 -17 -3 -49 -12 -78 -22 -76 -6 2 -11 -10 -11 -26 0 -25 3 -28
24 -24 16 3 23 10 19 19 -3 8 2 23 11 33 13 15 14 20 4 24 -7 2 -2 5 12 6 14
0 47 4 74 7 53 7 96 -9 96 -35 0 -12 6 -9 20 9 10 14 17 27 14 29 -2 2 7 19
21 37 14 18 25 44 25 57 0 22 5 25 39 29 22 2 37 0 35 -4 -3 -5 -1 -8 5 -8 5
0 15 -24 21 -52 6 -29 15 -60 21 -68 8 -11 9 -7 4 17 -9 43 -9 109 0 122 7 12
71 41 89 41 6 -1 -4 -7 -22 -15 -28 -12 -32 -18 -26 -37 14 -44 53 -84 116
-116 76 -38 104 -39 228 -8 68 17 96 29 101 42 7 17 8 17 8 -3 1 -12 -3 -33
-9 -48 -7 -17 -7 -24 0 -20 6 3 10 13 10 20 0 12 19 15 93 14 l92 0 108 -61
c89 -50 107 -65 107 -84 0 -18 -5 -24 -22 -24 -53 1 -132 -18 -143 -34 -13
-18 -25 -9 -38 27 -6 17 -8 17 -32 1 -28 -18 -27 0 -9 -203 6 -68 5 -83 -6
-79 -8 2 -19 26 -25 54 -6 27 -17 60 -24 73 -7 13 -8 21 -3 17 6 -4 8 2 5 14
-3 11 -11 20 -19 20 -8 0 -11 6 -8 15 4 8 1 15 -4 15 -6 0 -12 9 -14 20 -3 23
-20 28 -27 9 -2 -6 1 -9 7 -5 5 3 10 0 9 -7 -1 -40 4 -78 11 -74 4 3 7 -9 7
-26 1 -18 4 -56 9 -86 6 -42 5 -52 -5 -49 -7 2 -13 13 -14 24 -2 19 -44 106
-45 91 0 -5 5 -17 10 -28 6 -10 13 -36 16 -56 3 -21 7 -55 10 -75 6 -39 -10
-54 -20 -20 -3 10 -15 18 -26 18 -15 0 -18 -5 -14 -23 4 -16 1 -25 -10 -29 -9
-3 -16 -12 -16 -19 0 -7 -7 -18 -15 -25 -8 -7 -15 -20 -15 -30 0 -10 -7 -23
-16 -31 -10 -8 -14 -22 -11 -38 14 -67 -80 -199 -184 -260 -13 -8 -52 -32 -86
-53 -63 -38 -155 -64 -263 -74 -30 -3 -65 -7 -77 -9 -13 -2 -23 1 -23 8 0 8
-3 8 -9 -1 -7 -11 -9 -10 -15 3 -3 9 -10 14 -16 10 -15 -9 -48 13 -55 37 -13
48 -38 97 -47 92 -5 -3 -8 -2 -6 3 3 16 -24 98 -39 115 -9 10 -13 24 -9 33 3
9 2 13 -4 10 -6 -3 -10 1 -10 10 0 9 -4 13 -10 10 -6 -3 -10 4 -10 17 0 19 -2
20 -11 8 -9 -12 -10 -11 -6 7 3 12 -1 30 -9 40 -24 30 -6 -63 24 -127 14 -30
25 -63 24 -73 0 -10 4 -15 10 -11 6 4 8 3 4 -4 -3 -6 19 -63 49 -127 30 -64
55 -123 55 -131 0 -9 -11 -30 -25 -48 -14 -18 -25 -38 -25 -44 0 -7 -4 -12
-10 -12 -5 0 -6 -7 -3 -17 4 -9 2 -14 -3 -10 -6 3 -16 -4 -24 -16 -12 -20 -12
-21 3 -9 25 21 30 -4 9 -52 -20 -43 -20 -44 0 -60 13 -12 17 -23 12 -38 -5
-17 -3 -20 10 -15 9 4 16 3 17 -1 6 -49 5 -51 -6 -42 -9 7 -16 5 -25 -5 -11
-13 -10 -14 4 -9 10 4 18 0 22 -12 4 -11 13 -26 20 -35 19 -22 53 -129 41
-129 -5 0 -4 -7 3 -15 9 -11 9 -15 1 -15 -9 0 -9 -5 -1 -20 8 -16 8 -20 -4
-20 -8 0 -16 6 -19 13 -2 6 -7 9 -11 6 -3 -3 4 -17 17 -30 13 -13 29 -33 36
-44 10 -16 11 -16 7 -2 -8 26 12 11 60 -43 43 -49 78 -100 68 -100 -3 0 -37
23 -75 52 -75 55 -129 124 -129 163 0 21 -3 23 -23 16 -13 -5 -64 -16 -113
-26 -49 -9 -111 -24 -139 -35 -27 -10 -75 -26 -105 -35 -62 -19 -160 -80 -160
-101 0 -7 -6 -11 -14 -8 -7 3 -16 -2 -19 -10 -4 -9 -14 -16 -22 -16 -9 0 -13
5 -10 10 6 10 5 11 -33 15 -25 3 -24 1 -40 35 -11 22 -11 22 -6 3 6 -26 -6
-29 -36 -10 -17 10 -22 9 -30 -3 -8 -13 -10 -13 -10 1 0 16 -26 34 -42 31 -4
-1 -15 9 -25 21 -10 13 -26 21 -37 19 -11 -3 -16 0 -12 7 4 6 2 11 -3 11 -6 0
-11 7 -11 15 0 13 -7 17 -30 17 -3 1 -18 -2 -33 -6 -19 -4 -26 -3 -22 4 3 5
-2 10 -12 11 -10 0 -13 3 -5 6 20 8 15 49 -7 49 -11 0 -19 -3 -19 -6 2 -25 -5
-31 -13 -11 l-9 24 -23 -24 c-13 -13 -21 -28 -18 -34 2 -5 6 -4 9 3 2 7 8 12
13 12 6 0 5 -8 -1 -20 -17 -32 -40 -25 -41 13 -1 31 -2 31 -9 -8 -4 -22 -5
-44 -2 -50 3 -5 -1 -4 -9 3 -14 13 -30 16 -28 5 3 -20 -2 -43 -10 -43 -4 0 -6
11 -3 25 2 15 0 25 -7 25 -7 0 -11 7 -9 16 2 10 -1 19 -7 20 -6 2 -10 -19 -10
-51 0 -38 4 -54 12 -51 16 7 26 -26 11 -36 -8 -5 -2 -8 17 -8 17 0 25 -4 20
-8 -18 -12 -34 -59 -24 -69 5 -5 -3 -22 -21 -42 -17 -18 -30 -29 -30 -25 0 3
-6 1 -14 -5 -18 -15 -30 11 -13 29 9 10 9 11 0 6 -15 -8 -18 10 -4 19 6 3 4
17 -4 32 -9 17 -11 31 -5 38 5 6 11 55 14 108 5 82 4 97 -9 97 -8 0 -15 -5
-15 -11 0 -5 5 -7 10 -4 6 3 10 -1 10 -10 0 -10 -5 -13 -12 -9 -8 5 -9 1 -4
-12 6 -15 5 -17 -5 -6 -20 19 -31 14 -17 -7 7 -11 16 -17 20 -15 17 11 7 -15
-17 -40 -25 -27 -33 -56 -15 -56 5 0 6 7 3 17 -4 11 -3 14 5 9 15 -9 16 -56 1
-56 -6 0 -3 -7 6 -17 16 -15 16 -17 0 -25 -11 -7 -14 -16 -9 -31 6 -18 5 -20
-8 -10 -12 10 -15 10 -15 -2 0 -8 6 -15 14 -15 19 0 16 -30 -4 -46 -17 -12
-17 -13 -1 -14 9 0 20 -5 24 -11 4 -8 -1 -9 -17 -5 -24 7 -24 7 -4 -10 18 -15
18 -16 2 -10 -10 3 -23 6 -29 6 -6 0 -6 6 2 15 12 15 11 16 -12 19 -7 0 -14
10 -15 21 -2 11 0 14 3 8 3 -7 10 -13 16 -13 7 0 7 5 -1 13 -6 8 -7 18 -3 22
4 5 1 4 -7 0 -11 -6 -13 -4 -8 8 4 11 2 14 -9 10 -11 -4 -12 -9 -4 -18 8 -9 8
-15 0 -20 -6 -3 -8 -10 -5 -15 8 -13 -5 -37 -20 -37 -17 0 -20 13 -5 22 8 5 7
12 -2 23 -11 13 -11 14 1 8 9 -6 12 -4 9 5 -3 8 -11 14 -19 14 -11 0 -14 -18
-14 -83 1 -63 -2 -81 -12 -78 -7 3 -15 1 -18 -4 -3 -5 -12 -7 -20 -4 -11 4
-13 -1 -9 -23 4 -22 3 -26 -7 -15 -16 15 -30 16 -26 0 1 -7 -4 -13 -10 -14 -7
-1 -16 -2 -19 -3 -4 0 1 -13 11 -27 16 -25 16 -25 -4 -14 -14 7 -21 7 -22 0
-1 -5 -2 -15 -3 -20 0 -6 -7 -15 -15 -19 -8 -5 -11 -16 -8 -25 4 -10 1 -19 -7
-22 -8 -3 -14 -19 -13 -40 1 -18 4 -29 8 -23 4 7 12 8 18 5 15 -10 14 7 -1 23
-11 10 -10 11 5 6 10 -5 17 -2 17 5 0 7 6 10 14 7 10 -4 14 0 11 13 -2 13 1
17 10 14 10 -4 13 0 10 15 -3 19 5 26 28 22 5 -1 6 3 2 9 -4 6 -1 17 5 25 6 8
9 19 6 24 -6 10 26 33 51 37 10 2 10 -3 3 -17 -6 -11 -7 -19 -1 -19 5 0 11 6
14 14 3 7 14 16 25 18 15 4 19 2 15 -8 -6 -17 18 -19 34 -3 8 8 11 6 10 -7 -2
-22 -16 -34 -37 -33 -10 0 -8 3 4 8 19 7 19 8 -2 13 -12 4 -22 2 -22 -3 0 -5
-7 -9 -15 -9 -8 0 -15 -9 -15 -20 0 -11 5 -20 10 -20 6 0 10 -4 10 -9 0 -6
-10 -8 -23 -6 -20 4 -21 3 -4 -9 17 -13 17 -14 0 -21 -10 -5 -21 -7 -25 -7 -5
1 -8 -3 -8 -9 0 -5 -5 -7 -10 -4 -6 4 -8 11 -5 16 4 5 2 9 -4 9 -14 0 -23 -18
-12 -25 13 -7 4 -31 -12 -33 -43 -4 -54 -10 -69 -42 -21 -45 -64 -85 -72 -68
-4 9 -5 8 -5 -2 2 -31 -1 -41 -13 -34 -7 5 -9 0 -6 -14 4 -15 2 -19 -9 -15
-12 5 -14 -2 -11 -33 2 -30 0 -38 -11 -36 -12 3 -12 0 -2 -12 6 -8 8 -17 4
-19 -5 -3 -10 -32 -11 -63 -1 -32 -6 -62 -11 -67 -5 -5 -5 -22 -1 -37 6 -20 4
-32 -5 -40 -23 -19 -35 11 -26 72 7 50 6 56 -10 55 -10 -1 -20 -10 -23 -20 -2
-10 -10 -16 -15 -12 -6 3 -9 11 -6 16 4 5 -1 9 -11 9 -12 0 -14 -3 -6 -13 6
-7 9 -22 8 -32 -2 -11 5 -37 15 -57 24 -47 24 -53 -1 -28 -11 11 -20 28 -21
37 0 15 -2 15 -9 -2 -4 -11 -4 -24 1 -29 4 -5 4 -17 -2 -28 -7 -13 -6 -18 3
-18 10 0 10 -2 0 -9 -11 -7 -11 -11 1 -23 12 -11 12 -17 2 -31 -11 -15 -13
-14 -19 14 -3 18 -8 30 -11 28 -2 -3 0 -22 6 -42 5 -21 7 -43 3 -50 -5 -8 -2
-8 9 2 15 12 15 11 1 -17 -8 -17 -21 -33 -29 -36 -9 -3 -12 -12 -8 -22 4 -12
3 -15 -5 -10 -8 5 -12 -3 -12 -23 0 -17 -5 -31 -11 -31 -5 0 -9 -8 -8 -17 1
-10 -1 -25 -5 -35 -4 -9 -6 -31 -4 -50 l3 -33 427 -2 c385 -2 428 0 428 14 0
14 3 14 20 -2 11 -10 20 -13 20 -7 0 14 -28 42 -43 42 -23 0 -44 35 -36 58 5
12 11 22 14 22 4 0 3 -4 0 -10 -3 -5 -2 -10 3 -10 5 0 8 -11 7 -25 -2 -17 2
-25 12 -25 12 0 13 3 4 14 -9 10 -9 16 -1 21 8 5 7 11 -1 22 -10 12 -10 16 2
24 12 7 12 9 -1 9 -13 0 -13 2 -1 9 10 6 25 4 43 -5 15 -8 31 -15 35 -17 5 -1
7 -8 7 -14 -1 -9 3 -10 16 -3 13 7 21 5 30 -5 7 -8 16 -12 21 -9 5 3 13 3 18
0 11 -7 -8 -86 -21 -86 -5 0 -6 -5 -3 -10 10 -16 45 -12 45 5 0 8 10 25 22 37
13 13 15 19 6 16 -8 -4 -21 -2 -29 4 -12 8 -12 9 1 5 23 -7 62 11 54 24 -4 8
-3 9 5 5 6 -4 9 -12 6 -17 -4 -5 0 -9 7 -10 47 -3 63 -8 72 -22 9 -14 12 -13
28 5 11 13 18 16 18 8 0 -9 5 -7 14 5 14 20 11 49 -5 39 -5 -3 -12 2 -15 10
-9 23 -19 20 -21 -6 -2 -16 0 -19 6 -10 7 11 9 10 14 -2 4 -10 1 -16 -8 -16
-8 0 -15 -4 -15 -10 0 -5 -4 -10 -8 -10 -5 0 -7 14 -6 30 2 26 0 29 -12 19
-12 -10 -14 -7 -12 12 2 18 -2 24 -19 25 -25 1 -28 -8 -13 -36 7 -13 6 -21 -2
-26 -7 -4 -10 -4 -6 1 4 4 4 15 -1 24 -13 25 -22 83 -12 76 5 -3 8 3 7 12 -2
10 1 21 6 24 5 3 -5 6 -21 7 -21 0 -31 -4 -31 -14 0 -8 -4 -13 -9 -9 -5 3 -12
1 -16 -5 -3 -5 -12 -10 -18 -10 -8 0 -8 3 -2 8 6 4 11 15 13 24 2 12 -3 16
-17 13 -12 -2 -23 1 -26 6 -4 5 -11 7 -16 4 -5 -4 -9 -2 -9 3 0 6 -7 13 -16
16 -9 3 -12 2 -8 -5 3 -6 -3 -5 -14 2 -12 7 -19 15 -16 18 2 3 -9 10 -26 17
-16 7 -30 20 -30 27 0 8 -8 18 -17 21 -11 5 -13 10 -6 17 7 7 25 6 57 -2 34
-8 58 -9 84 -2 45 13 98 10 95 -5 -2 -6 6 -10 16 -9 16 1 18 5 9 20 -7 13 -17
18 -34 14 -40 -7 -27 11 23 33 27 12 60 20 76 17 15 -2 27 0 27 3 0 11 117 27
133 18 8 -4 24 -9 35 -11 11 -2 26 -8 34 -13 7 -6 25 -10 40 -9 15 1 26 -3 25
-8 -3 -14 46 -15 55 -2 4 6 8 1 8 -9 0 -11 3 -16 7 -13 3 4 13 2 20 -5 11 -9
16 -9 23 2 6 11 16 9 49 -7 23 -11 41 -16 41 -10 0 6 3 8 6 4 3 -3 1 -14 -5
-24 -6 -11 -11 -13 -11 -5 0 7 -5 10 -11 6 -8 -5 -6 -10 5 -16 9 -5 13 -15 10
-21 -5 -8 -3 -8 7 1 19 18 29 15 29 -8 0 -17 -5 -19 -25 -14 -20 5 -24 3 -19
-10 4 -11 1 -16 -11 -16 -9 0 -13 5 -10 10 3 6 2 10 -2 10 -12 0 -33 -22 -33
-35 0 -5 5 -3 10 5 7 11 10 12 10 2 0 -7 -7 -21 -16 -29 -13 -13 -13 -17 -2
-24 15 -10 13 -11 -24 -13 -23 -2 -25 1 -17 16 5 10 15 18 22 19 7 1 1 5 -13
9 l-25 8 24 1 24 1 -26 20 c-28 23 -37 25 -37 9 0 -5 4 -7 10 -4 5 3 10 1 10
-4 0 -6 -4 -11 -10 -11 -5 0 -7 -13 -4 -30 4 -19 2 -30 -4 -30 -6 0 -9 6 -6
13 3 8 -2 19 -9 26 -12 9 -15 8 -13 -6 1 -13 -7 -18 -29 -18 -16 -1 -33 3 -36
8 -8 12 -51 -11 -44 -23 6 -10 33 -9 50 2 6 4 16 -2 23 -13 10 -15 10 -19 -2
-19 -20 0 -26 -36 -9 -59 14 -20 13 -21 -29 -16 -24 3 -52 8 -63 10 -11 3 -14
2 -8 -1 10 -4 10 -9 -1 -20 -22 -21 -25 -17 -16 22 5 19 17 42 27 50 16 12 16
15 3 24 -19 13 -37 13 -45 0 -4 -6 -10 -8 -15 -5 -5 3 -3 -7 5 -22 14 -26 14
-28 -6 -31 -15 -3 -19 -9 -16 -22 2 -10 1 -24 -4 -31 -6 -10 -9 -11 -9 -1 0 6
-4 12 -10 12 -5 0 -9 -6 -7 -12 3 -20 40 -50 46 -39 7 11 61 2 61 -11 0 -5 -4
-6 -10 -3 -5 3 -10 1 -10 -4 0 -14 27 -14 35 -2 3 6 20 8 38 5 81 -13 97 -14
97 -5 0 5 -6 11 -12 14 -7 2 -10 7 -7 11 4 4 17 -3 29 -16 15 -16 19 -18 15
-5 -4 10 -2 17 4 17 6 0 11 -4 11 -9 0 -5 9 -7 20 -4 11 3 20 10 20 17 0 6 4
4 10 -4 5 -8 13 -11 17 -6 4 4 0 13 -10 21 -15 10 -15 14 -3 24 8 7 17 8 20 3
3 -5 24 -9 47 -9 39 0 41 1 23 15 -15 11 -15 13 -2 9 23 -8 31 20 10 32 -16
10 -16 10 1 11 10 0 15 5 12 11 -4 5 -4 22 0 36 l6 26 16 -22 c8 -12 21 -20
29 -17 8 3 14 1 14 -4 0 -15 -21 -12 -42 7 -17 15 -18 15 -18 -3 0 -32 13 -42
60 -49 87 -13 95 -12 98 14 3 18 0 22 -12 18 -9 -4 -16 -2 -16 3 0 12 23 13
34 3 4 -4 13 -8 19 -9 7 0 20 -2 30 -2 9 -1 17 -6 17 -11 0 -4 -13 -7 -30 -5
-35 4 -40 -10 -9 -27 16 -8 20 -8 14 1 -6 9 -2 9 15 0 15 -8 20 -8 16 -1 -5 7
2 11 16 12 16 1 18 3 6 6 -23 6 -32 38 -18 60 10 16 11 16 7 -4 -4 -19 -2 -20
19 -11 13 6 21 15 18 19 -3 5 0 9 5 9 6 0 11 -6 11 -12 0 -9 4 -8 10 2 9 13
11 13 21 0 9 -13 10 -13 6 0 -2 8 -13 16 -25 18 -21 3 -33 42 -13 42 5 0 11 9
14 21 3 12 10 18 16 14 7 -4 8 0 5 10 -5 12 -9 13 -20 4 -11 -9 -14 -7 -14 10
0 12 5 19 10 16 6 -3 10 -1 10 4 0 6 7 11 16 11 8 0 12 -4 9 -10 -3 -6 5 -10
19 -10 14 0 28 5 32 12 5 7 3 8 -6 3 -10 -6 -12 0 -8 24 3 20 1 30 -6 28 -6
-2 -9 -17 -7 -33 3 -29 3 -29 -17 -11 -12 11 -26 16 -31 12 -6 -3 -11 -2 -11
4 0 6 -7 8 -15 5 -8 -4 -15 -1 -15 5 0 6 5 10 12 8 6 -1 14 6 16 16 2 9 -1 17
-7 17 -6 0 -11 -6 -11 -12 -1 -9 -4 -8 -13 2 -7 8 -23 16 -36 18 -28 3 -37 9
-28 18 3 3 12 2 19 -2 7 -5 21 -7 31 -6 9 2 17 -1 17 -6 0 -5 11 -7 25 -4 14
2 22 8 20 12 -3 5 -1 11 5 15 5 3 10 -1 10 -9 0 -10 6 -13 15 -10 8 4 17 -1
21 -10 3 -9 10 -14 15 -11 4 3 6 12 2 20 -3 9 1 15 11 15 9 0 16 -5 16 -11 0
-5 4 -8 9 -4 5 3 17 -5 25 -17 15 -21 16 -21 17 -3 1 11 1 23 0 28 0 4 3 7 9
7 5 0 7 -13 3 -32 -4 -18 -7 -46 -7 -63 -1 -25 3 -30 22 -29 12 1 22 -3 22 -7
0 -5 -5 -9 -11 -9 -5 0 -7 -4 -4 -10 3 -5 2 -10 -3 -10 -5 0 -9 -6 -9 -13 0
-7 11 -12 26 -12 39 2 43 -4 21 -27 -11 -12 -20 -28 -20 -35 0 -8 -4 -11 -10
-8 -6 3 -10 -2 -10 -12 0 -14 -2 -15 -9 -4 -5 8 -14 10 -22 6 -9 -6 -11 -3 -6
8 3 10 2 17 -3 17 -6 0 -10 -6 -11 -12 0 -7 -2 -28 -5 -46 -3 -23 1 -34 11
-38 8 -4 15 -11 15 -16 0 -7 -5 -6 -13 1 -8 6 -18 7 -22 3 -5 -4 -6 -2 -2 3 3
6 -4 17 -16 25 -21 12 -21 12 -7 -5 14 -16 13 -17 -6 -11 -12 3 -28 0 -40 -9
-10 -8 -26 -15 -36 -15 -9 0 -18 -6 -21 -12 -3 -10 -7 -10 -20 0 -9 8 -21 11
-26 8 -5 -4 -13 -2 -16 4 -4 7 -13 4 -24 -9 -10 -11 -21 -18 -25 -14 -9 10 -7
25 3 18 5 -3 13 0 17 6 5 9 -1 10 -19 5 -16 -4 -27 -1 -30 7 -3 6 -6 -3 -6
-20 -1 -20 4 -32 10 -30 6 1 14 -4 16 -11 4 -10 -3 -12 -26 -9 -17 3 -31 1
-31 -4 0 -5 64 -9 145 -9 143 0 145 0 146 23 1 20 1 21 7 2 6 -17 17 -20 75
-23 55 -3 67 0 67 12 0 9 5 16 10 16 6 0 10 -7 10 -15 0 -10 10 -15 30 -15 17
0 30 5 30 13 0 9 2 9 8 0 6 -9 11 -7 20 7 11 18 9 20 -17 20 -16 0 -31 -6 -34
-12 -2 -7 -8 -9 -13 -5 -12 11 16 27 48 27 40 0 78 17 78 36 0 10 6 14 14 11
10 -4 16 6 20 36 6 33 9 38 17 27 9 -12 10 -11 6 7 -3 15 1 23 14 26 11 3 22
0 26 -5 3 -6 1 -8 -4 -5 -6 4 -14 0 -17 -8 -4 -12 -2 -13 13 -6 10 6 22 7 27
3 5 -4 2 1 -5 10 -13 18 -8 38 11 38 5 0 8 -7 4 -15 -11 -29 5 -14 19 18 8 17
14 25 15 17 0 -9 6 -6 16 9 15 21 18 22 26 7 8 -13 13 -15 24 -5 7 6 12 15 9
19 -8 13 18 6 43 -11 12 -9 19 -19 14 -24 -4 -5 -1 -5 6 -1 7 5 11 14 8 22 -7
17 10 19 18 2 3 -7 3 -1 0 15 -4 16 -2 27 5 27 6 0 11 -12 11 -26 0 -23 3 -26
26 -21 14 2 31 -1 38 -9 12 -11 15 -10 19 6 3 11 1 22 -4 25 -4 3 -5 13 -2 21
4 11 8 12 13 4 6 -10 12 -10 26 0 16 10 16 11 2 6 -12 -3 -18 0 -18 10 0 8 -4
12 -10 9 -5 -3 -18 -1 -27 4 -14 8 -10 10 23 11 49 0 64 22 37 52 -17 18 -16
19 10 14 17 -3 25 -1 21 5 -3 6 -8 8 -11 5 -3 -3 -12 2 -20 10 -8 8 -19 11
-25 8 -6 -4 -8 -2 -4 4 3 5 0 13 -6 16 -7 3 8 5 35 3 26 -1 47 1 47 5 0 5 -14
8 -31 8 -17 0 -28 4 -24 10 3 6 1 10 -5 10 -8 0 -8 6 0 20 6 11 7 20 3 19 -4
-1 -16 1 -27 6 -11 5 -21 3 -26 -5 -4 -7 -10 -8 -12 -4 -3 5 -3 4 -2 -3 2 -7
-1 -15 -6 -18 -6 -4 -10 -1 -10 4 0 6 -5 11 -11 11 -8 0 -7 -5 2 -16 14 -17
20 -56 7 -48 -4 3 -8 12 -8 20 0 8 -4 14 -10 14 -5 0 -7 -7 -4 -15 4 -8 1 -15
-6 -15 -8 0 -11 9 -8 23 3 15 0 24 -8 24 -7 0 -11 -3 -9 -7 11 -18 -45 -52
-67 -39 -11 6 -20 4 -28 -6 -9 -10 -9 -15 -1 -15 18 0 13 -25 -11 -56 -13 -15
-17 -25 -10 -20 6 4 12 3 12 -2 0 -15 -43 -23 -51 -10 -5 7 -16 -2 -29 -23
-12 -19 -20 -26 -17 -17 5 13 2 15 -11 11 -15 -6 -16 -5 -2 12 14 17 13 18 -3
12 -10 -4 -23 -7 -28 -7 -5 0 -9 -5 -9 -11 0 -5 4 -8 9 -5 5 3 14 -1 21 -10
10 -11 10 -18 2 -26 -7 -7 -12 -20 -12 -30 0 -10 -7 -18 -15 -18 -8 0 -15 5
-15 11 0 6 -7 4 -15 -5 -19 -19 -19 -30 0 -23 23 9 26 -8 5 -29 -44 -44 -50
-47 -50 -22 0 17 -3 19 -9 10 -10 -16 -56 -12 -56 5 0 6 -3 14 -7 18 -3 4 3
18 14 31 17 18 24 21 35 12 11 -9 12 -7 7 8 -4 10 -4 16 1 12 4 -4 14 -1 22 7
9 10 21 12 36 6 25 -10 57 2 57 21 0 6 -9 3 -20 -7 -20 -18 -20 -17 -21 16
l-1 34 -8 -30 c-5 -19 -8 -23 -9 -11 -1 19 -2 19 -14 2 -12 -16 -15 -16 -26
-3 -8 10 -9 17 -1 22 5 3 10 12 10 18 0 7 -4 6 -10 -3 -8 -13 -10 -12 -10 3 0
12 -8 17 -27 17 -38 0 -24 9 20 12 23 1 37 7 37 16 0 7 -5 10 -12 6 -7 -5 -8
-3 -4 5 6 9 12 9 25 -3 10 -9 21 -13 24 -9 4 3 7 0 7 -8 1 -10 4 -9 11 4 5 9
7 22 4 27 -3 5 0 7 8 4 8 -3 17 -1 20 3 3 5 -9 10 -26 11 -38 3 -99 20 -75 21
11 1 15 7 11 21 -4 15 -9 18 -18 10 -9 -8 -15 -8 -20 0 -8 13 -45 13 -45 0 0
-5 -11 1 -25 14 -26 24 -33 46 -14 46 5 0 8 -4 4 -9 -3 -5 -1 -12 5 -16 6 -3
14 4 19 17 l10 23 0 -22 c1 -27 16 -30 31 -5 10 15 11 14 7 -5 -3 -15 0 -23 9
-23 7 0 11 6 8 13 -4 12 24 46 33 40 1 -2 9 -3 16 -3 9 0 9 2 -1 8 -10 7 -8
15 8 35 18 23 27 26 58 22 l37 -5 -30 14 c-29 14 -29 14 -5 15 35 1 94 12 100
20 3 4 17 12 33 18 23 11 27 10 28 -5 1 -9 1 -20 0 -25 0 -4 6 -7 14 -7 8 0
14 3 13 7 -2 13 14 67 25 80 5 7 13 10 19 7 5 -3 4 -12 -3 -20 -7 -8 -7 -14
-1 -14 5 0 13 8 16 17 6 14 9 15 15 4 6 -9 11 -10 15 -2 4 6 12 9 17 6 5 -4 9
-1 9 5 0 6 5 8 10 5 6 -3 10 -2 10 4 0 5 -5 11 -10 13 -7 2 -6 10 3 22 11 15
29 20 93 22 43 2 81 4 84 5 3 1 8 1 12 0 4 0 22 8 40 19 43 26 78 26 78 1 0
-11 -7 -27 -16 -35 -10 -10 -11 -16 -4 -16 8 0 10 -9 6 -27 -4 -16 -8 -35 -9
-43 -1 -8 -6 -18 -12 -23 -6 -4 -5 -10 4 -16 11 -7 11 -9 0 -14 -10 -4 -10 -6
-1 -6 6 -1 12 -6 12 -12 0 -5 -4 -8 -9 -5 -5 4 -7 -3 -4 -14 3 -11 10 -20 15
-20 5 0 7 4 3 9 -3 5 0 13 6 16 5 4 8 13 5 21 -6 17 -1 17 25 3 16 -8 18 -14
9 -24 -6 -8 -7 -16 -2 -19 9 -6 21 4 36 31 5 9 2 11 -10 6 -12 -4 -15 -3 -10
6 5 7 18 10 30 7 20 -5 20 -5 2 9 -11 8 -22 12 -25 7 -12 -15 -41 -13 -41 3 0
9 -4 14 -9 11 -5 -3 -12 1 -15 10 -9 24 -7 27 9 14 20 -17 26 -10 32 39 4 26
1 46 -7 56 -23 28 5 15 30 -14 l24 -28 14 36 c7 20 17 50 21 67 12 46 20 55
44 49 20 -5 20 -5 6 7 -15 12 -15 17 -3 38 l13 25 1 -24 c0 -24 0 -24 19 -5
10 10 17 22 15 25 -2 4 3 12 11 19 11 10 18 9 30 -4 9 -9 21 -16 26 -16 6 0 7
-5 3 -12 -4 -7 -3 -8 5 -4 6 4 23 -1 39 -12 40 -28 101 -46 152 -43 71 3 77 7
91 64 13 50 20 267 9 267 -3 0 -7 11 -8 25 -1 16 3 25 13 25 8 0 15 5 15 10 0
6 -5 10 -11 10 -12 0 -38 29 -39 41 0 4 9 9 20 12 13 3 18 10 14 21 -8 22 13
46 34 39 11 -3 13 -2 6 4 -14 10 -9 43 8 54 10 7 10 9 0 9 -7 0 -4 8 9 21 12
12 18 27 14 38 -3 12 0 21 10 25 8 3 15 12 15 19 0 20 26 41 34 28 7 -10 11
-10 51 4 18 6 17 8 -11 20 -17 7 -53 36 -79 64 -35 37 -64 57 -106 72 -33 12
-59 28 -59 35 0 15 -155 106 -184 108 -20 1 -65 76 -66 109 0 22 -45 112 -76
153 -31 40 -30 52 7 97 18 22 37 62 46 98 8 34 26 78 39 97 13 19 33 67 45
106 30 106 28 101 42 87 7 -7 12 -16 12 -21 0 -6 3 -10 8 -10 4 0 9 0 12 0 3
0 -1 13 -9 29 -15 28 -14 40 13 109 14 35 37 45 28 12 -3 -11 -1 -20 4 -20 10
0 11 15 13 150 1 47 8 95 15 108 25 46 49 231 44 337 -7 144 -7 144 -17 137
-5 -3 -7 2 -3 11 4 11 2 14 -9 10 -10 -3 -14 2 -14 19 0 13 -4 28 -9 33 -5 6
-12 30 -15 55 -3 25 -5 46 -5 48 -1 2 -5 0 -11 -3 -5 -3 -10 -1 -10 5 0 6 -5
8 -11 4 -7 -4 -10 -1 -7 7 3 8 11 13 17 12 6 -2 11 2 11 7 0 6 -5 10 -12 10
-9 0 -9 3 -1 11 7 7 8 18 3 28 -14 29 -38 95 -45 125 -3 17 -20 45 -36 63 -16
19 -29 40 -29 47 0 22 -59 89 -89 102 -15 7 -31 19 -34 27 -3 8 -40 34 -81 57
-42 22 -79 47 -83 53 -5 7 -17 19 -28 27 -19 14 -19 14 -6 -2 19 -25 -2 -23
-24 2 -20 22 -41 27 -28 8 4 -7 -5 -5 -21 5 -29 19 -56 17 -56 -5 0 -9 3 -9
11 2 9 13 10 13 6 0 -2 -8 3 -20 12 -27 9 -7 11 -12 4 -13 -19 0 -43 30 -43
53 0 18 -2 19 -10 7 -9 -13 -10 -13 -11 0 -1 8 -1 17 -1 20 0 3 -8 6 -19 6
-13 0 -19 -7 -19 -24 0 -21 -2 -22 -15 -12 -8 7 -15 19 -15 26 0 8 -7 14 -15
14 -8 0 -15 -8 -15 -17 -1 -16 -2 -16 -11 1 -9 15 -13 16 -20 5 -6 -10 -9 -6
-9 14 0 15 -4 27 -10 27 -5 0 -10 -7 -10 -16 0 -8 -5 -12 -10 -9 -6 4 -8 10
-5 15 3 5 1 11 -5 15 -5 3 -10 1 -10 -5 0 -7 -7 -10 -14 -7 -11 4 -13 1 -9
-11 6 -15 5 -15 -10 -3 -9 7 -17 10 -17 6 0 -5 -8 -1 -17 7 -33 27 -48 32 -25
6 27 -30 29 -45 2 -18 -25 25 -63 35 -87 22 -13 -8 -25 -6 -45 6 -22 13 -30
14 -40 4 -9 -9 -9 -12 1 -12 7 0 9 -4 6 -10 -3 -6 1 -7 10 -4 10 4 14 2 10 -8
-8 -21 -55 -22 -55 0 0 10 -3 13 -8 6 -4 -6 -16 -16 -27 -22 -11 -6 -15 -12
-8 -12 17 0 4 -30 -13 -30 -8 0 -26 7 -39 16 -20 13 -26 13 -38 2 -12 -11 -12
-14 2 -25 14 -10 14 -12 1 -13 -22 0 -36 12 -45 39 -5 18 -4 22 5 16 9 -5 11
-4 6 3 -10 17 -34 15 -44 -5 -8 -14 -11 -11 -16 14 -7 29 -36 43 -36 16 0 -8
-5 -11 -11 -8 -6 4 -13 -2 -15 -12 -4 -15 -12 -19 -29 -15 -29 5 -43 21 -48
52 -2 13 -10 26 -18 28 -8 3 -11 1 -7 -3 4 -4 0 -14 -10 -22 -9 -8 -12 -12 -5
-9 6 4 14 2 17 -3 7 -10 -48 -24 -86 -21 -27 1 -36 -9 -20 -24 4 -4 7 -13 7
-19 0 -7 15 -12 35 -12 19 0 40 -4 47 -8 8 -5 9 0 5 15 -3 14 -1 19 6 14 6 -3
12 2 14 14 3 20 4 19 31 -6 29 -26 30 -48 2 -24 -17 14 -18 10 -6 -22 8 -22 6
-24 -20 -23 -15 0 -31 4 -35 8 -13 12 -24 8 -18 -8 4 -10 0 -15 -15 -15 -12 0
-21 4 -21 8 0 5 -9 18 -21 30 -11 12 -17 28 -14 35 3 6 -2 2 -11 -10 -37 -50
-48 -2 -13 56 16 26 17 32 5 28 -23 -9 -32 14 -11 30 11 7 14 13 9 13 -6 0
-20 -9 -32 -20z m445 -106 c-3 -3 -12 -4 -19 -1 -8 3 -5 6 6 6 11 1 17 -2 13
-5z m533 -28 c0 -8 6 -17 13 -20 6 -3 3 -5 -8 -3 -20 2 -35 37 -16 37 6 0 11
-6 11 -14z m235 -26 c-3 -5 -11 -10 -16 -10 -6 0 -7 5 -4 10 3 6 11 10 16 10
6 0 7 -4 4 -10z m-70 -18 c-3 -3 -11 0 -18 7 -9 10 -8 11 6 5 10 -3 15 -9 12
-12z m-85 -57 c14 -19 14 -19 -2 -6 -10 7 -18 18 -18 24 0 6 1 8 3 6 1 -2 9
-13 17 -24z m105 -23 c-3 -3 -11 0 -18 7 -9 10 -8 11 6 5 10 -3 15 -9 12 -12z
m-115 -32 c0 -5 -8 -10 -17 -10 -15 0 -16 2 -3 10 19 12 20 12 20 0z m35 -110
c3 -5 1 -10 -4 -10 -6 0 -11 5 -11 10 0 6 2 10 4 10 3 0 8 -4 11 -10z m200
-189 c3 -5 2 -12 -3 -15 -5 -3 -7 -20 -5 -38 2 -24 1 -28 -5 -14 -8 18 -9 18
-15 2 -4 -10 -7 -26 -7 -36 0 -9 -8 -24 -17 -31 -16 -12 -17 -12 -6 1 6 9 14
40 18 69 3 30 8 58 11 63 7 11 21 10 29 -1z m55 -41 c0 -5 -8 -15 -19 -21 -11
-8 -17 -20 -14 -33 3 -19 3 -19 -6 2 -8 17 -7 27 6 42 19 22 33 26 33 10z
m260 6 c0 -2 -7 -7 -16 -10 -8 -3 -12 -2 -9 4 6 10 25 14 25 6z m-234 -32 c1
-9 0 -13 -3 -10 -3 3 -11 -1 -17 -10 -10 -13 -12 -13 -13 5 -1 13 4 21 13 21
9 0 12 5 8 13 -4 6 -3 8 1 4 5 -4 10 -15 11 -23z m234 -80 c0 -14 -4 -22 -10
-19 -5 3 -10 17 -10 31 0 14 4 22 10 19 6 -3 10 -17 10 -31z m37 -58 c-4 -27
-2 -46 4 -48 7 -2 7 -12 1 -28 -9 -22 -11 -23 -17 -7 -4 9 -5 31 -3 47 3 17 1
30 -4 30 -13 0 -9 -105 4 -118 9 -9 9 -15 0 -24 -7 -7 -13 -8 -13 -2 -1 5 -2
14 -4 19 -1 6 -3 25 -3 43 -2 24 -6 31 -14 26 -10 -6 -10 -4 -2 7 13 16 28 69
25 87 -1 6 6 12 15 12 14 0 16 -7 11 -44z m-202 -7 c6 -19 0 -38 -9 -28 -10
12 -16 49 -7 49 5 0 13 -9 16 -21z m32 15 c-3 -3 -12 -4 -19 -1 -8 3 -5 6 6 6
11 1 17 -2 13 -5z m-1020 -10 c-3 -3 -12 -4 -19 -1 -8 3 -5 6 6 6 11 1 17 -2
13 -5z m160 -50 c-3 -3 -12 -4 -19 -1 -8 3 -5 6 6 6 11 1 17 -2 13 -5z m874
-47 c-4 -11 -15 -21 -24 -23 -10 -1 -16 1 -14 4 2 4 6 14 10 23 3 9 12 16 20
16 11 0 13 -6 8 -20z m79 -12 c0 -5 -5 -3 -10 5 -5 8 -10 20 -10 25 0 6 5 3
10 -5 5 -8 10 -19 10 -25z m128 -7 c12 -47 9 -57 -11 -40 -15 13 -22 82 -9 82
5 0 14 -19 20 -42z m-1703 12 c-10 -17 -45 -32 -45 -20 0 6 10 15 23 20 29 12
29 12 22 0z m659 -2 c48 -13 66 -25 66 -43 0 -14 -48 -27 -55 -14 -3 4 -19 4
-35 -1 -16 -5 -37 -7 -47 -6 -10 2 -20 0 -23 -5 -3 -4 -15 -2 -28 5 -21 11
-21 13 -6 35 28 39 64 48 128 29z m941 2 c3 -5 1 -10 -4 -10 -6 0 -11 5 -11
10 0 6 2 10 4 10 3 0 8 -4 11 -10z m-325 -191 c0 -6 -4 -7 -10 -4 -5 3 -10 11
-10 16 0 6 5 7 10 4 6 -3 10 -11 10 -16z m-7 -43 c4 -10 1 -13 -8 -9 -8 3 -12
9 -9 14 7 12 11 11 17 -5z m-13 -37 c0 -6 -4 -7 -10 -4 -8 5 -14 -14 -12 -36
1 -4 -8 -5 -18 -2 -11 3 -20 10 -20 15 0 5 5 6 10 3 6 -3 15 6 20 20 9 24 30
27 30 4z m-78 -21 c-7 -7 -12 -8 -12 -2 0 6 3 14 7 17 3 4 9 5 12 2 2 -3 -1
-11 -7 -17z m-13 -27 c7 -5 15 -20 16 -35 3 -26 -5 -33 -19 -18 -4 4 -13 7
-19 7 -9 0 -13 26 -8 50 2 7 14 6 30 -4z m449 -93 c5 -7 13 -24 17 -37 7 -22
5 -22 -24 7 -17 16 -31 32 -31 36 0 11 27 6 38 -6z m-298 -92 c0 -8 -7 -19
-15 -26 -8 -7 -13 -15 -10 -19 6 -11 -30 -62 -38 -54 -4 3 -7 -3 -7 -15 0 -12
-5 -22 -10 -22 -16 0 -26 33 -12 38 7 2 12 10 12 17 0 8 8 19 18 24 9 6 12 11
5 11 -21 0 -1 40 21 41 11 0 15 3 9 6 -7 2 -13 11 -13 19 0 12 4 12 20 4 11
-6 20 -17 20 -24z m158 -32 c-4 -3 -12 5 -18 18 -12 22 -12 22 6 6 10 -10 15
-20 12 -24z m-121 -6 c-3 -8 -6 -5 -6 6 -1 11 2 17 5 13 3 -3 4 -12 1 -19z
m130 -50 c-3 -8 -6 -5 -6 6 -1 11 2 17 5 13 3 -3 4 -12 1 -19z m144 -21 c-10
-9 -11 -8 -5 6 3 10 9 15 12 12 3 -3 0 -11 -7 -18z m-207 -25 c4 -10 22 -24
42 -31 39 -14 36 -24 -10 -35 -25 -6 -28 -5 -18 7 19 22 2 27 -19 6 -27 -27
-24 -38 15 -54 19 -8 38 -20 41 -26 5 -7 16 -2 34 13 14 12 6 1 -19 -25 -41
-44 -49 -48 -82 -45 -26 2 -38 -1 -38 -9 0 -7 -5 -13 -11 -13 -8 0 -7 -5 2
-16 11 -13 11 -15 -2 -12 -18 4 -89 -73 -89 -96 0 -9 -7 -16 -15 -16 -8 0 -15
-4 -15 -10 0 -9 17 -14 48 -13 7 1 15 -10 18 -23 6 -25 24 -33 24 -11 0 15 20
-13 20 -28 0 -25 -38 -12 -53 18 l-16 32 -1 -45 c-1 -35 -3 -40 -10 -25 -8 18
-9 18 -10 -5 -1 -23 -2 -23 -9 -5 -5 11 -6 26 -4 33 9 22 -7 13 -17 -10 -8
-22 -9 -22 -9 5 -1 15 -5 27 -11 27 -5 0 -10 12 -10 26 0 14 4 23 10 19 5 -3
7 -12 3 -20 -3 -10 -1 -13 8 -10 23 9 16 68 -9 80 -13 6 -20 16 -17 24 3 7 0
20 -7 29 -10 12 -10 16 0 19 6 3 10 9 7 14 -4 5 1 6 9 3 10 -4 16 -1 16 9 0
10 -7 13 -19 10 -11 -3 -21 2 -24 11 -4 11 -1 13 10 9 8 -3 19 0 24 8 6 10 9
10 9 2 0 -7 7 -13 16 -13 8 0 12 -5 9 -11 -9 -13 32 -52 45 -44 6 4 9 14 8 23
-2 11 8 20 30 27 l32 11 -29 28 c-18 17 -31 41 -33 63 -4 33 -3 35 24 29 32
-6 69 18 61 40 -7 20 4 44 21 44 8 0 17 -8 20 -18z m196 4 c0 -2 -8 -10 -17
-17 -16 -13 -17 -12 -4 4 13 16 21 21 21 13z m-590 -90 c0 -9 -30 -14 -35 -6
-4 6 3 10 14 10 12 0 21 -2 21 -4z m25 -25 c-3 -6 -11 -11 -17 -11 -6 0 -6 6
2 15 14 17 26 13 15 -4z m-1201 -127 c3 -8 2 -12 -4 -9 -6 3 -10 10 -10 16 0
14 7 11 14 -7z m1316 -48 c0 -3 -4 -8 -10 -11 -5 -3 -10 -1 -10 4 0 6 5 11 10
11 6 0 10 -2 10 -4z m140 -189 c0 -2 -11 -13 -25 -25 -19 -17 -25 -18 -25 -7
0 8 7 15 15 15 8 0 15 5 15 10 0 6 5 10 10 10 6 0 10 -1 10 -3z m199 -626 c-1
-25 -2 -25 -9 4 -6 25 -8 27 -15 12 -4 -9 -3 -23 2 -30 5 -6 10 -23 11 -35 1
-18 -3 -22 -16 -17 -13 5 -14 3 -6 -5 7 -7 21 -9 34 -5 16 5 19 10 11 18 -15
15 -14 24 3 30 8 3 20 -2 28 -11 11 -13 11 -15 -2 -7 -12 7 -13 6 -3 -7 7 -8
11 -17 8 -20 -3 -2 2 -5 10 -5 9 0 14 6 11 14 -6 16 10 18 20 2 3 -6 15 -8 26
-6 21 6 53 -8 86 -39 17 -16 21 -30 19 -70 -2 -39 1 -48 13 -46 11 3 10 -2 -4
-17 -18 -20 -13 -27 17 -22 4 0 7 -7 7 -16 0 -13 -3 -14 -12 -5 -15 15 -31 16
-22 0 5 -8 1 -9 -12 -4 -15 6 -17 5 -6 -5 6 -7 12 -22 12 -33 0 -15 -9 -7 -28
26 -15 27 -31 48 -37 48 -5 0 -25 17 -45 38 -72 78 -167 137 -234 146 -21 3
-41 7 -43 10 -3 3 19 30 48 60 40 42 56 53 66 44 10 -8 13 -6 13 8 0 15 3 15
25 -6 15 -14 25 -34 24 -49z m-2559 -145 c0 -11 -19 -15 -25 -6 -3 5 1 10 9
10 9 0 16 -2 16 -4z m-243 -153 c-3 -10 -5 -2 -5 17 0 19 2 27 5 18 2 -10 2
-26 0 -35z m3118 -1 c-3 -3 -11 0 -18 7 -9 10 -8 11 6 5 10 -3 15 -9 12 -12z
m-3125 -84 c0 -19 -2 -20 -10 -8 -13 19 -13 30 0 30 6 0 10 -10 10 -22z m3087
-50 c-3 -8 -6 -5 -6 6 -1 11 2 17 5 13 3 -3 4 -12 1 -19z m-3053 -52 c-5 -14
-9 -15 -15 -5 -5 8 -3 17 4 21 15 9 19 4 11 -16z m-134 -26 c-8 -5 -22 -10
-30 -10 -13 0 -13 1 0 10 8 5 22 10 30 10 13 0 13 -1 0 -10z m70 -26 c0 -4 -7
-4 -15 0 -8 3 -15 1 -15 -4 0 -6 9 -10 20 -10 11 0 20 -4 20 -10 0 -5 -7 -10
-15 -10 -8 0 -15 -4 -15 -10 0 -5 -7 -10 -15 -10 -8 0 -15 5 -15 12 0 9 -3 9
-12 0 -16 -16 -28 -15 -28 2 0 8 9 12 25 11 22 -3 25 1 25 26 0 27 2 29 20 19
11 -6 20 -13 20 -16z m558 12 c14 -5 22 -3 22 4 0 8 6 8 20 0 15 -8 19 -17 14
-32 -4 -15 -2 -19 7 -16 8 3 13 14 12 25 -1 12 4 20 12 20 10 0 15 -10 15 -28
0 -22 4 -27 20 -26 11 1 20 7 20 14 0 7 7 13 16 13 11 0 14 -6 9 -20 -7 -22 5
-26 23 -8 7 7 12 8 12 2 0 -6 -5 -15 -12 -22 -9 -9 -8 -12 5 -12 13 0 17 -9
17 -35 0 -20 6 -37 13 -39 92 -27 129 -29 239 -12 62 9 160 23 218 31 58 8
111 17 119 20 7 3 29 -7 48 -21 33 -25 40 -26 104 -21 58 5 69 3 69 -10 0 -9
-6 -13 -15 -10 -8 4 -17 2 -20 -3 -3 -5 -11 -7 -18 -4 -18 6 -61 -18 -65 -36
-2 -8 -9 -27 -17 -42 -12 -25 -11 -27 8 -30 11 -2 21 -11 23 -21 1 -9 -2 -15
-7 -11 -5 3 -7 9 -4 14 3 5 -5 10 -17 12 -14 2 -23 9 -22 20 1 10 -4 14 -12
11 -10 -4 -12 0 -7 13 6 16 5 17 -9 4 -9 -8 -14 -19 -11 -23 3 -5 -3 -5 -13 0
-23 12 -119 11 -131 0 -4 -5 3 -7 16 -5 14 2 26 -3 29 -11 3 -10 -3 -12 -27
-6 -20 4 -31 3 -31 -4 0 -16 -16 -14 -34 4 -19 19 -26 19 -42 -2 -13 -17 -14
-17 -8 0 5 14 2 16 -12 10 -11 -3 -21 -10 -24 -14 -8 -11 -51 1 -45 12 3 4 12
6 20 2 8 -3 15 -1 15 5 0 16 -52 6 -66 -12 -7 -11 -14 -13 -17 -6 -3 6 -4 5
-3 -2 2 -7 13 -12 25 -12 12 1 20 -4 18 -10 -2 -6 -21 -10 -47 -8 -28 2 -46
-1 -51 -10 -7 -11 -9 -11 -9 1 0 8 -8 4 -21 -10 -11 -13 -17 -17 -13 -9 7 13
6 13 -10 1 -17 -14 -17 -16 1 -28 10 -8 18 -20 18 -28 0 -8 5 -15 10 -14 6 0
9 7 7 15 -2 8 4 17 13 20 9 4 14 13 11 21 -3 8 -1 11 4 8 6 -3 10 -15 10 -25
0 -21 20 -38 21 -18 0 10 2 10 6 0 2 -6 10 -9 16 -5 6 4 8 0 4 -10 -6 -16 -5
-16 18 -1 14 9 25 20 25 23 0 16 33 6 38 -11 6 -23 22 -24 22 0 0 14 2 15 10
2 5 -8 10 -11 10 -6 0 5 10 1 22 -10 19 -15 20 -16 9 -1 -11 14 -11 17 2 17 8
0 17 -9 20 -19 5 -20 47 -26 47 -8 0 5 7 4 15 -3 8 -7 15 -19 15 -26 0 -8 5
-14 11 -14 5 0 8 4 5 9 -9 15 17 19 39 8 26 -15 58 -15 67 -2 5 6 8 3 8 -7 0
-11 5 -15 14 -12 7 3 20 -2 29 -10 17 -18 32 -21 22 -6 -4 6 5 10 20 10 15 0
35 5 45 10 12 7 21 7 25 0 4 -6 16 -3 32 7 25 17 26 17 19 -7 -4 -19 -3 -18 8
5 13 27 12 31 -2 36 -10 3 -22 4 -29 2 -6 -2 -11 2 -10 9 1 31 -4 48 -14 48
-5 0 -8 -4 -4 -9 3 -5 -8 -3 -24 5 -26 13 -29 18 -21 45 10 32 10 35 10 49 0
10 80 11 80 1 0 -3 18 -25 40 -49 43 -46 43 -46 34 -80 -4 -15 -12 -21 -21
-18 -8 3 -11 2 -8 -3 3 -5 1 -12 -4 -15 -5 -3 -14 -20 -20 -38 l-11 -32 20 22
c12 12 18 26 15 31 -3 5 -1 12 5 16 6 4 10 -6 10 -25 0 -17 -4 -29 -9 -26 -4
3 -6 -6 -3 -21 4 -23 2 -25 -17 -20 -17 4 -25 0 -33 -18 -9 -20 -14 -22 -31
-14 -14 8 -18 8 -13 0 4 -6 2 -11 -4 -11 -6 0 -8 -5 -4 -11 4 -8 0 -8 -15 0
-11 7 -21 8 -21 3 0 -5 -13 -7 -30 -4 -18 3 -30 0 -30 -7 0 -6 -5 -11 -11 -11
-6 0 -9 7 -5 15 3 8 1 15 -4 15 -6 0 -10 -4 -10 -10 0 -5 -7 -10 -15 -10 -8 0
-15 -5 -15 -11 0 -7 -10 -9 -26 -5 -15 4 -23 3 -20 -2 3 -6 -2 -16 -12 -23
-15 -12 -16 -12 -5 1 17 22 -19 47 -37 25 -8 -10 -8 -15 1 -21 8 -5 9 -3 4 6
-6 9 -4 11 4 5 9 -5 9 -11 3 -17 -6 -6 -16 -7 -24 -2 -36 23 -78 12 -78 -21 0
-5 5 -3 10 5 8 12 10 11 10 -7 0 -13 -6 -23 -12 -24 -10 0 -10 -2 0 -6 6 -2 9
-9 6 -14 -4 -6 -11 -6 -19 1 -9 8 -14 6 -19 -5 -3 -9 -2 -14 2 -12 4 3 13 -1
20 -9 11 -12 1 -21 -11 -11 -2 1 -12 -5 -22 -13 -11 -9 -16 -10 -11 -2 4 6 3
12 -2 12 -5 0 -4 15 2 34 6 19 14 32 18 30 3 -2 10 1 14 7 4 7 3 10 -2 7 -5
-3 -18 -2 -29 2 -13 5 -27 2 -39 -9 -18 -15 -19 -15 -13 2 4 11 3 16 -3 12 -6
-3 -10 -1 -10 6 0 7 -6 4 -14 -7 -14 -18 -15 -18 -22 -1 -3 10 -12 16 -18 14
-7 -3 -23 4 -37 15 -16 13 -18 18 -6 14 12 -4 17 0 17 14 0 11 -3 20 -7 21
-26 3 -53 7 -93 14 -36 6 -41 9 -25 16 15 6 16 8 4 8 -9 1 -22 -6 -29 -14 -9
-11 -17 -12 -32 -4 -11 6 -26 8 -33 5 -8 -3 -17 -1 -20 5 -4 5 -12 9 -18 8 -7
-1 -19 -1 -27 0 -13 1 -13 2 0 11 9 6 10 10 3 10 -6 0 -15 -4 -18 -10 -9 -14
-95 -9 -130 8 -19 10 -30 11 -33 4 -2 -6 -9 -9 -17 -6 -7 3 -16 0 -20 -6 -6
-9 -10 -9 -16 1 -7 11 -9 11 -9 1 0 -7 -4 -11 -10 -7 -5 3 -18 -3 -30 -15 -11
-11 -26 -20 -34 -20 -8 0 -18 -5 -21 -11 -4 -6 -19 -9 -33 -8 -15 2 -38 -3
-52 -11 -14 -8 -31 -15 -39 -16 -8 -2 -17 -6 -20 -11 -3 -4 -17 -9 -31 -11
-62 -8 -125 -39 -178 -90 -28 -26 -54 -35 -63 -21 -5 8 -9 9 -9 4 0 -18 -54
-45 -70 -35 -11 7 -8 11 13 21 15 7 34 23 42 36 15 22 14 23 -7 24 l-23 2 22
4 c13 2 30 14 38 26 14 21 15 21 16 2 0 -11 3 -15 5 -9 3 6 0 22 -5 35 -7 16
-10 19 -10 7 -1 -9 -5 -20 -11 -23 -6 -4 -9 5 -8 19 2 24 10 31 32 27 5 -1 6
5 2 14 -4 10 3 19 19 27 16 7 27 22 31 44 7 38 37 74 62 74 9 0 24 5 32 11 12
8 10 9 -8 4 -21 -6 -23 -5 -13 13 6 11 8 28 5 36 -4 11 2 19 17 25 29 11 36 6
19 -14 -7 -8 -17 -12 -24 -9 -6 3 -2 -2 8 -10 27 -22 34 -20 38 11 6 48 23 36
20 -14 -2 -36 0 -44 8 -32 9 15 18 70 19 122 1 9 5 17 10 17 5 0 8 -8 6 -17
-15 -78 -15 -85 3 -79 16 6 16 5 0 -8 -19 -14 -24 -36 -10 -36 5 0 9 -7 9 -15
0 -8 -7 -15 -14 -15 -12 0 -11 -3 2 -16 21 -21 26 -14 30 39 1 25 7 51 11 59
12 17 12 58 1 58 -4 0 -5 5 -2 10 10 16 25 12 25 -6 0 -10 6 -14 14 -11 10 4
13 1 9 -8 -3 -8 -9 -12 -14 -9 -8 4 -13 -20 -6 -29 1 -2 -4 -11 -11 -20 -10
-12 -11 -21 -3 -34 10 -16 10 -17 11 -1 0 12 5 15 16 11 10 -4 17 1 21 16 3
11 8 21 12 21 4 0 7 12 6 27 0 14 6 27 13 29 7 1 8 0 2 -3 -5 -2 -10 -12 -9
-21 0 -11 2 -12 6 -4 6 14 33 16 33 2 0 -5 5 -10 11 -10 5 0 7 5 4 10 -4 6 -1
9 7 8 7 -2 16 -9 19 -17 4 -11 9 -10 23 4 14 15 19 16 26 5 4 -7 6 -19 3 -27
-4 -9 0 -11 11 -7 9 3 16 14 16 23 0 9 5 23 10 31 8 11 9 8 4 -12 -5 -24 -3
-28 15 -28 13 0 21 6 21 18 0 14 -2 15 -10 2 -6 -9 -10 -10 -10 -3 0 7 7 16
17 21 20 12 11 40 -16 50 -19 7 -21 10 -21 30 0 5 -7 9 -15 9 -10 0 -15 -10
-15 -29 0 -15 -4 -28 -9 -28 -15 0 -40 29 -37 43 1 7 1 9 -1 6 -8 -14 -43 4
-41 20 2 13 -6 16 -44 15 -36 0 -48 4 -51 17 -3 10 2 20 10 23 8 3 11 2 8 -3
-3 -5 0 -13 6 -16 7 -5 10 0 7 11 -3 14 -12 18 -33 17 -29 -2 -29 -2 -10 14
l20 16 -20 -8 c-11 -4 -25 -9 -31 -11 -6 -3 -11 2 -11 11 0 9 6 14 14 11 8 -3
11 -1 8 5 -4 5 -15 7 -26 4 -17 -6 -18 -2 -13 37 3 24 6 48 6 55 1 7 7 14 13
17 8 3 11 -5 9 -20 -1 -13 2 -24 7 -24 10 0 12 12 10 46 -2 18 16 35 41 38 3
1 9 3 11 6 8 8 169 5 195 -4z m177 -6 c3 -5 -1 -10 -9 -10 -9 0 -16 5 -16 10
0 6 4 10 9 10 6 0 13 -4 16 -10z m30 0 c3 -5 1 -10 -4 -10 -6 0 -11 5 -11 10
0 6 2 10 4 10 3 0 8 -4 11 -10z m-695 -10 c0 -5 -4 -10 -10 -10 -5 0 -10 5
-10 10 0 6 5 10 10 10 6 0 10 -4 10 -10z m170 -100 c-13 -9 -7 -14 12 -11 4 0
5 -6 2 -14 -4 -8 -10 -13 -14 -10 -12 7 -23 -13 -14 -26 4 -8 9 -7 15 2 6 9 7
2 3 -18 -5 -28 -3 -33 12 -34 16 -1 17 -2 2 -6 -19 -5 -33 -37 -23 -53 9 -14
-8 -13 -23 2 -9 9 -12 9 -12 0 0 -7 10 -17 23 -22 19 -7 19 -9 3 -9 -16 -1
-17 -3 -5 -18 11 -15 11 -16 -1 -5 -8 6 -25 12 -38 12 -13 0 -21 4 -18 9 3 5
16 7 29 5 12 -2 16 -2 10 2 -17 8 -16 42 2 60 8 8 12 21 9 29 -4 9 0 15 7 15
11 0 11 2 1 8 -22 15 -5 92 21 92 7 0 6 -4 -3 -10z m-314 -48 c6 -4 9 -15 5
-24 -5 -15 -8 -13 -18 7 -11 25 -7 31 13 17z m49 -33 c-10 -15 -25 -10 -19 6
4 8 10 12 15 9 5 -3 7 -10 4 -15z m211 -14 c-9 -9 -16 -13 -16 -8 0 12 22 34
28 28 2 -2 -3 -11 -12 -20z m-16 -35 c0 -5 -4 -10 -10 -10 -5 0 -10 5 -10 10
0 6 5 10 10 10 6 0 10 -4 10 -10z m-266 -36 c-17 -14 -17 -15 -1 -10 11 3 16
2 12 -4 -3 -6 -21 -10 -40 -10 -19 0 -37 -5 -40 -10 -5 -8 -11 -7 -21 1 -16
13 -20 34 -5 24 6 -3 16 1 23 9 7 9 31 15 52 16 38 0 39 -1 20 -16z m421 -12
c-3 -3 -11 0 -18 7 -9 10 -8 11 6 5 10 -3 15 -9 12 -12z m212 -24 c-3 -7 -5
-2 -5 12 0 14 2 19 5 13 2 -7 2 -19 0 -25z m-72 12 c-3 -5 -12 -10 -18 -10 -7
0 -6 4 3 10 19 12 23 12 15 0z m962 -16 c-3 -3 -12 -4 -19 -1 -8 3 -5 6 6 6
11 1 17 -2 13 -5z m83 -20 c0 -8 -4 -14 -10 -14 -5 0 -10 9 -10 21 0 11 5 17
10 14 6 -3 10 -13 10 -21z m-1057 -1 c-3 -7 -6 -13 -8 -13 -2 0 -5 6 -8 13 -3
8 1 14 8 14 7 0 11 -6 8 -14z m51 2 c4 -13 2 -14 -14 -5 -23 13 -26 20 -6 20
8 0 16 -7 20 -15z m590 0 c3 -8 1 -15 -3 -15 -5 0 -11 7 -15 15 -3 8 -1 15 3
15 5 0 11 -7 15 -15z m49 -9 c4 -10 1 -13 -9 -9 -7 3 -14 9 -14 14 0 14 17 10
23 -5z m67 -12 c0 -8 -19 -13 -24 -6 -3 5 1 9 9 9 8 0 15 -2 15 -3z m17 -16
c-3 -8 -6 -5 -6 6 -1 11 2 17 5 13 3 -3 4 -12 1 -19z m-134 -5 c-7 -2 -19 -2
-25 0 -7 3 -2 5 12 5 14 0 19 -2 13 -5z m101 -11 c3 -5 -1 -9 -9 -9 -8 0 -12
4 -9 9 3 4 7 8 9 8 2 0 6 -4 9 -8z m598 -30 c10 -10 6 -12 -20 -10 -31 2 -38
8 -26 20 8 9 33 3 46 -10z m-222 -2 c0 -5 -2 -10 -4 -10 -3 0 -8 5 -11 10 -3
6 -1 10 4 10 6 0 11 -4 11 -10z m250 -57 c0 -21 -3 -24 -9 -14 -5 8 -7 20 -4
28 8 21 13 15 13 -14z m317 -15 c-3 -8 -6 -5 -6 6 -1 11 2 17 5 13 3 -3 4 -12
1 -19z m-401 -13 c-3 -8 0 -14 6 -12 6 1 12 -3 15 -10 3 -7 -3 -9 -16 -6 -22
5 -30 43 -10 43 6 0 9 -7 5 -15z m66 -23 c-19 -17 -19 -19 -4 -30 9 -7 12 -10
5 -7 -8 4 -11 -3 -10 -21 1 -17 -4 -29 -13 -31 -9 -3 -11 -1 -5 4 14 11 17 33
5 33 -5 0 -7 8 -4 18 4 11 -3 8 -19 -10 -21 -23 -27 -25 -37 -13 -6 8 -9 19
-5 26 6 8 10 7 16 -2 6 -11 15 -7 36 18 15 18 34 33 42 33 10 0 7 -6 -7 -18z
m18 -12 c0 -5 -5 -10 -11 -10 -5 0 -7 5 -4 10 3 6 8 10 11 10 2 0 4 -4 4 -10z
m-122 -29 c2 -1 0 -6 -3 -11 -4 -7 -13 -7 -26 0 -16 9 -19 7 -20 -12 0 -13 -3
-17 -6 -10 -11 29 13 44 55 33z m-1774 -28 c-5 -5 -12 -12 -15 -16 -3 -5 -9
-2 -12 7 -5 12 0 16 15 16 12 0 17 -3 12 -7z m1753 -28 c0 -8 -4 -12 -9 -9 -5
3 -6 10 -3 15 9 13 12 11 12 -6z m-40 -17 c-3 -8 -6 -5 -6 6 -1 11 2 17 5 13
3 -3 4 -12 1 -19z m83 -22 c0 -8 -6 -18 -13 -24 -9 -8 -15 -5 -23 12 -10 21
-9 23 9 18 15 -4 18 -2 12 8 -5 9 -4 11 3 6 7 -4 12 -13 12 -20z m580 -27 c0
-5 -8 -9 -17 -9 -16 0 -16 -2 -3 -11 12 -9 12 -10 -3 -5 -10 3 -23 6 -29 6 -6
0 -3 9 6 19 17 19 46 19 46 0z m-2767 3 c3 8 6 8 6 2 1 -6 -7 -18 -16 -25 -10
-7 -15 -9 -11 -5 4 5 2 16 -5 25 -10 14 -10 14 5 3 13 -10 17 -10 21 0z m1610
-18 c-12 -9 -13 -13 -5 -14 10 0 10 -3 -2 -15 -29 -30 -36 -10 -10 30 9 14 20
22 26 19 5 -3 1 -12 -9 -20z m157 16 c12 -8 11 -10 -7 -10 -13 0 -23 5 -23 10
0 13 11 13 30 0z m-205 -49 c-3 -6 -11 -11 -16 -11 -5 0 -4 6 3 14 14 16 24
13 13 -3z m435 -1 c8 -5 11 -10 5 -10 -5 0 -17 5 -25 10 -8 5 -10 10 -5 10 6
0 17 -5 25 -10z m-282 -35 c-3 -3 -9 2 -12 12 -6 14 -5 15 5 6 7 -7 10 -15 7
-18z m32 4 c0 -5 -4 -9 -10 -9 -5 0 -10 7 -10 16 0 8 5 12 10 9 6 -3 10 -10
10 -16z m547 15 c-3 -3 -12 -4 -19 -1 -8 3 -5 6 6 6 11 1 17 -2 13 -5z m313
-18 c0 -2 -7 -6 -15 -10 -8 -3 -15 -1 -15 4 0 6 7 10 15 10 8 0 15 -2 15 -4z
m-230 -10 c0 -3 -4 -8 -10 -11 -5 -3 -10 -1 -10 4 0 6 5 11 10 11 6 0 10 -2
10 -4z m347 -2 c-3 -3 -12 -4 -19 -1 -8 3 -5 6 6 6 11 1 17 -2 13 -5z m-557
-19 c0 -2 -7 -5 -15 -9 -9 -3 -15 0 -15 9 0 9 6 12 15 9 8 -4 15 -7 15 -9z
m63 -16 c-6 -6 -18 -6 -28 -3 -18 7 -18 8 1 14 23 9 39 1 27 -11z m567 -10 c0
-14 -17 -10 -23 5 -4 10 -1 13 9 9 7 -3 14 -9 14 -14z m-987 -9 c-3 -11 -7
-20 -9 -20 -2 0 -4 9 -4 20 0 11 4 20 9 20 5 0 7 -9 4 -20z m-253 -14 c0 -2
-7 -7 -16 -10 -8 -3 -12 -2 -9 4 6 10 25 14 25 6z m1150 0 c0 -2 -7 -7 -16
-10 -8 -3 -12 -2 -9 4 6 10 25 14 25 6z m-480 -16 c0 -5 -4 -10 -10 -10 -5 0
-10 5 -10 10 0 6 5 10 10 10 6 0 10 -4 10 -10z m-376 -25 c3 -9 0 -15 -9 -15
-9 0 -12 6 -9 15 4 8 7 15 9 15 2 0 5 -7 9 -15z m-317 -37 c-3 -8 -6 -5 -6 6
-1 11 2 17 5 13 3 -3 4 -12 1 -19z m889 -44 c-4 -9 -9 -15 -11 -12 -3 3 -3 13
1 22 4 9 9 15 11 12 3 -3 3 -13 -1 -22z m-1458 -24 c-12 -19 -28 -27 -28 -14
0 6 30 33 38 34 1 0 -3 -9 -10 -20z m602 -26 c0 -3 -4 -3 -9 0 -5 4 -11 2 -13
-4 -1 -5 -13 -7 -25 -4 -13 4 -20 10 -17 15 3 5 11 6 17 2 7 -4 5 1 -3 12 -14
17 -14 18 18 1 17 -9 32 -19 32 -22z m212 24 c-8 -8 -9 -15 -1 -25 13 -15 0
-16 -41 -3 -22 7 -23 8 -4 9 12 1 27 8 34 16 7 8 15 15 18 15 3 0 1 -5 -6 -12z
m-132 -10 c0 -4 -4 -8 -9 -8 -6 0 -12 4 -15 8 -3 5 1 9 9 9 8 0 15 -4 15 -9z
m500 2 c0 -5 -5 -10 -11 -10 -5 0 -7 5 -4 10 3 6 8 10 11 10 2 0 4 -4 4 -10z
m-784 -9 c-3 -5 5 -11 19 -13 14 -3 25 -1 25 3 0 5 7 9 15 9 8 0 15 -7 15 -15
0 -10 10 -13 36 -11 19 1 37 -1 40 -6 3 -5 9 -6 14 -3 5 3 12 0 16 -6 3 -6 0
-15 -7 -20 -8 -4 -16 -4 -20 3 -4 6 -24 12 -45 13 -22 1 -50 7 -64 13 -14 6
-33 13 -43 16 -15 5 -16 26 -1 26 3 0 3 -4 0 -9z m-659 -21 c-2 -24 -20 -26
-37 -5 -11 13 -10 14 5 9 13 -5 16 -4 11 4 -4 7 -1 12 8 12 9 0 14 -8 13 -20z
m-54 -4 c4 -10 1 -13 -9 -9 -7 3 -14 9 -14 14 0 14 17 10 23 -5z m1057 -7 c0
-5 -4 -8 -9 -5 -5 4 -11 1 -13 -6 -3 -8 -7 -6 -11 5 -5 12 -1 17 13 17 11 0
20 -5 20 -11z m582 -14 c-8 -16 -9 -16 -15 -1 -4 10 -3 15 3 11 6 -3 10 -1 10
6 0 7 3 10 6 6 3 -3 2 -13 -4 -22z m-82 -5 c0 -24 -27 -37 -43 -21 -8 8 -5 11
11 11 15 0 20 5 16 15 -4 8 -1 15 5 15 6 0 11 -9 11 -20z m-790 6 c0 -11 -19
-15 -25 -6 -3 5 1 10 9 10 9 0 16 -2 16 -4z m50 -17 c0 -4 -17 -11 -37 -17
-26 -7 -31 -10 -15 -11 21 -1 33 -31 11 -31 -5 0 -7 6 -3 13 4 6 -3 3 -16 -8
-13 -11 -20 -15 -17 -8 4 7 -5 15 -23 22 -37 12 -39 20 -4 13 20 -4 25 -2 19
8 -5 7 -4 11 1 7 5 -3 20 0 33 7 25 14 51 17 51 5z m33 -16 c-3 -7 -6 -13 -8
-13 -2 0 -5 6 -8 13 -3 8 1 14 8 14 7 0 11 -6 8 -14z m757 7 c0 -5 -4 -10 -10
-10 -5 0 -10 5 -10 10 0 6 5 10 10 10 6 0 10 -4 10 -10z m-250 -49 c0 -4 -13
-6 -30 -3 -16 2 -30 7 -30 11 0 4 14 6 30 3 17 -2 30 -7 30 -11z m108 -2 c-19
-13 -28 -11 -28 5 0 9 7 12 21 9 16 -4 17 -8 7 -14z m-1211 -24 c-7 -13 -14
-20 -15 -14 -5 14 6 39 17 39 5 0 4 -11 -2 -25z m933 2 c0 -14 -6 -24 -15 -24
-8 0 -15 4 -15 9 0 4 5 8 10 8 6 0 10 5 10 11 0 5 -5 7 -12 3 -7 -4 -8 -3 -4
4 12 20 26 13 26 -11z m23 3 c-7 -26 -13 -26 -13 0 0 11 4 20 9 20 5 0 7 -9 4
-20z"/>
<path d="M3380 1746 c0 -9 5 -16 10 -16 6 0 10 4 10 9 0 6 -4 13 -10 16 -5 3
-10 -1 -10 -9z"/>
<path d="M3507 1623 c5 -13 3 -15 -13 -9 -15 6 -15 3 5 -18 14 -15 27 -26 30
-26 3 0 0 5 -7 12 -15 15 -16 32 -2 23 12 -7 12 -3 4 19 -3 9 -10 16 -15 16
-4 0 -5 -8 -2 -17z"/>
<path d="M985 1190 c-16 -7 -16 -9 -4 -9 9 -1 16 -8 15 -17 0 -9 5 -19 12 -21
10 -4 14 8 11 33 0 4 5 11 13 15 18 12 -20 11 -47 -1z"/>
<path d="M1092 1185 c9 -9 79 -12 84 -3 3 4 -16 8 -42 8 -26 0 -45 -2 -42 -5z"/>
<path d="M905 1102 c-13 -9 -17 -32 -6 -32 9 0 24 30 18 36 -1 2 -7 0 -12 -4z"/>
<path d="M1205 939 c-4 -6 -13 -8 -21 -5 -11 4 -11 0 2 -19 9 -14 18 -25 19
-25 2 0 5 14 7 30 5 32 3 36 -7 19z"/>
<path d="M1227 867 c-10 -12 -13 -23 -7 -25 5 -2 10 -11 10 -20 1 -26 23 17
25 45 1 29 -5 29 -28 0z"/>
<path d="M1478 843 c7 -3 16 -2 19 1 4 3 -2 6 -13 5 -11 0 -14 -3 -6 -6z"/>
<path d="M1368 713 c7 -3 16 -2 19 1 4 3 -2 6 -13 5 -11 0 -14 -3 -6 -6z"/>
<path d="M640 599 c-13 -9 -12 -10 3 -5 9 3 17 1 17 -4 0 -6 -5 -10 -11 -10
-5 0 -7 -5 -3 -11 7 -12 24 7 24 29 0 15 -10 15 -30 1z"/>
<path d="M1855 580 c-16 -7 -17 -9 -3 -9 9 -1 20 4 23 9 7 11 7 11 -20 0z"/>
<path d="M1671 564 c0 -11 3 -14 6 -6 3 7 2 16 -1 19 -3 4 -6 -2 -5 -13z"/>
<path d="M1694 568 c4 -20 26 -21 26 -1 0 14 -2 15 -9 4 -6 -9 -10 -10 -14 -2
-4 8 -5 8 -3 -1z"/>
<path d="M1735 560 c-3 -5 -1 -10 4 -10 6 0 11 5 11 10 0 6 -2 10 -4 10 -3 0
-8 -4 -11 -10z"/>
<path d="M1770 550 c0 -5 7 -7 15 -4 8 4 15 8 15 10 0 2 -7 4 -15 4 -8 0 -15
-4 -15 -10z"/>
<path d="M2856 4353 c-8 -8 13 -43 25 -43 6 0 8 7 5 16 -5 14 -4 15 9 4 9 -8
15 -8 15 -2 0 18 -42 37 -54 25z"/>
<path d="M1880 4206 c0 -13 7 -27 16 -30 14 -5 15 -4 4 9 -7 8 -10 22 -6 30 3
8 1 15 -4 15 -6 0 -10 -11 -10 -24z"/>
<path d="M3070 3894 c0 -8 5 -12 10 -9 6 4 8 11 5 16 -9 14 -15 11 -15 -7z"/>
<path d="M3132 3750 c14 -22 24 -19 15 5 -4 8 -11 15 -17 15 -6 0 -6 -7 2 -20z"/>
<path d="M3593 3740 c1 -11 5 -20 9 -20 11 0 10 28 -1 35 -6 3 -9 -4 -8 -15z"/>
<path d="M2738 3593 c7 -3 16 -2 19 1 4 3 -2 6 -13 5 -11 0 -14 -3 -6 -6z"/>
<path d="M1788 3513 c-10 -2 -18 -8 -18 -11 0 -12 19 -37 23 -32 6 6 19 50 15
49 -2 -1 -11 -3 -20 -6z"/>
<path d="M2290 3415 c0 -8 4 -15 9 -15 5 0 11 7 15 15 3 9 0 15 -9 15 -8 0
-15 -7 -15 -15z"/>
<path d="M1645 3369 c3 -48 7 -57 42 -86 42 -36 64 -41 83 -18 10 12 10 18 0
30 -7 8 -17 12 -23 8 -5 -3 -7 -2 -4 4 3 5 -18 33 -47 62 l-54 53 3 -53z"/>
<path d="M2400 3230 c5 -18 25 -64 45 -102 19 -38 33 -74 29 -79 -3 -5 -19 0
-35 11 -23 17 -29 29 -29 60 0 63 -6 70 -48 58 -22 -6 -72 -8 -127 -3 -135 11
-178 8 -192 -11 -7 -10 -23 -18 -35 -19 -13 -1 -35 -5 -50 -10 -22 -6 -28 -4
-28 9 0 18 -15 22 -25 6 -4 -6 -10 -8 -15 -5 -15 9 -40 -7 -40 -27 0 -10 -18
-49 -40 -85 -22 -37 -40 -75 -40 -85 0 -27 -1 -31 -11 -50 -7 -12 -6 -18 2
-18 6 0 9 -8 6 -19 -3 -13 15 -39 60 -86 62 -65 65 -67 78 -48 12 17 24 20 76
18 39 -1 64 -7 69 -16 7 -11 10 -10 16 4 10 26 25 20 18 -8 -4 -18 -1 -27 10
-31 9 -3 16 -14 16 -25 0 -10 8 -22 17 -28 19 -10 13 -13 -68 -26 -42 -6 -65
-22 -73 -52 -11 -37 20 -45 109 -28 43 9 116 15 162 14 97 -1 110 6 147 82
l22 47 -51 -15 c-27 -8 -53 -17 -57 -19 -17 -11 -146 -15 -152 -6 -10 17 14
49 51 69 18 10 33 21 33 26 0 4 -4 6 -9 3 -5 -3 -11 0 -14 8 -7 18 21 15 33
-3 4 -8 12 -11 18 -7 18 11 104 20 170 18 43 -1 71 3 85 13 18 13 23 13 38 -1
15 -14 19 -10 43 48 14 35 27 79 29 98 1 19 5 38 9 41 14 9 -43 111 -58 105
-8 -3 -14 1 -14 9 0 8 -23 36 -51 62 -37 35 -49 53 -46 69 3 17 0 20 -15 16
-12 -3 -30 6 -48 23 l-30 28 10 -33z m-410 -149 c0 -10 -10 -31 -22 -47 -12
-16 -16 -24 -8 -17 13 10 15 5 14 -39 -2 -48 -31 -98 -57 -98 -13 0 1 68 21
99 12 17 13 23 3 17 -8 -5 -12 -5 -10 0 43 105 59 128 59 85z m493 -74 c47
-43 54 -60 39 -85 -7 -10 -24 -7 -80 11 -39 13 -75 26 -78 30 -4 4 5 19 19 33
15 15 27 33 27 40 0 25 25 15 73 -29z m-259 -133 c6 -15 9 -15 33 1 25 17 27
17 39 1 10 -14 16 -15 33 -6 38 20 56 -16 28 -54 -12 -16 -14 -16 -35 4 -15
15 -27 19 -35 12 -7 -5 -48 -10 -92 -11 -92 -2 -154 -16 -162 -37 -10 -27 -23
-14 -23 25 0 25 5 41 15 45 8 3 17 4 19 3 1 -1 10 4 19 11 10 8 27 11 44 8 15
-3 35 -2 43 4 24 15 67 12 74 -6z m-104 -118 c0 -3 -4 -8 -10 -11 -5 -3 -10
-1 -10 4 0 6 5 11 10 11 6 0 10 -2 10 -4z m70 -6 c0 -5 -4 -10 -9 -10 -6 0
-13 5 -16 10 -3 6 1 10 9 10 9 0 16 -4 16 -10z"/>
<path d="M3565 2720 c-8 -13 5 -13 25 0 13 8 13 10 -2 10 -9 0 -20 -4 -23 -10z"/>
<path d="M1458 1906 c25 -5 59 -5 85 0 37 8 32 9 -43 9 -75 0 -80 -1 -42 -9z"/>
<path d="M1265 1900 c-13 -6 -15 -9 -5 -9 8 0 22 4 30 9 18 12 2 12 -25 0z"/>
<path d="M1218 1883 c7 -3 16 -2 19 1 4 3 -2 6 -13 5 -11 0 -14 -3 -6 -6z"/>
<path d="M1835 1880 c-3 -6 1 -7 9 -4 18 7 21 14 7 14 -6 0 -13 -4 -16 -10z"/>
<path d="M1158 1873 c7 -3 16 -2 19 1 4 3 -2 6 -13 5 -11 0 -14 -3 -6 -6z"/>
<path d="M975 1854 c-33 -7 -71 -18 -85 -24 -24 -10 -24 -10 5 -6 17 3 39 6
50 8 12 2 19 -2 18 -9 -2 -7 2 -13 7 -13 6 0 10 7 10 16 0 8 4 13 9 10 5 -4
11 -1 13 4 2 6 26 15 53 19 40 7 43 9 15 9 -19 -1 -62 -6 -95 -14z"/>
<path d="M1030 1831 c0 -10 30 -24 37 -17 3 2 -5 9 -16 16 -12 6 -21 7 -21 1z"/>
<path d="M1282 1820 c-9 -15 -9 -21 1 -26 6 -4 9 -4 5 1 -4 4 -3 14 4 22 6 7
9 15 7 18 -3 2 -10 -4 -17 -15z"/>
<path d="M1356 1815 c4 -8 7 -15 9 -15 2 0 5 7 9 15 3 9 0 15 -9 15 -9 0 -12
-6 -9 -15z"/>
<path d="M1767 1823 c-10 -9 -9 -23 1 -23 5 0 9 7 9 15 0 17 -1 18 -10 8z"/>
<path d="M840 1810 c-9 -6 -10 -10 -3 -10 6 0 15 5 18 10 8 12 4 12 -15 0z"/>
<path d="M1411 1817 c2 -1 13 -9 24 -17 19 -14 19 -14 6 3 -7 9 -18 17 -24 17
-6 0 -8 -1 -6 -3z"/>
<path d="M1046 1792 c-3 -5 1 -9 9 -9 8 0 12 4 9 9 -3 4 -7 8 -9 8 -2 0 -6 -4
-9 -8z"/>
<path d="M734 1765 c-10 -8 -14 -14 -9 -14 6 0 19 6 29 14 11 8 15 15 10 15
-6 0 -19 -7 -30 -15z"/>
<path d="M1257 1774 c-3 -3 -3 -13 0 -22 4 -9 2 -13 -4 -9 -6 4 -14 1 -16 -5
-4 -8 -6 -7 -6 4 -1 18 -33 18 -39 0 -6 -19 -20 -14 -17 6 1 9 0 12 -2 5 -2
-7 -10 -11 -16 -9 -7 1 -9 1 -4 -1 4 -3 5 -8 2 -13 -3 -5 6 -7 20 -5 28 3 40
-8 29 -26 -4 -8 -9 -7 -15 2 -4 7 -11 10 -15 6 -10 -9 -1 -17 25 -22 14 -3 21
1 22 13 0 9 5 2 10 -15 5 -18 14 -33 19 -33 6 0 10 -7 10 -16 0 -10 -6 -14
-14 -11 -10 4 -13 1 -10 -7 3 -8 13 -12 24 -9 10 3 21 0 24 -6 4 -6 23 -11 42
-11 26 0 34 4 34 18 0 10 6 26 13 37 20 29 27 65 14 66 -7 1 -22 1 -34 1 -13
-1 -23 4 -23 10 0 6 -9 8 -20 5 -20 -5 -45 15 -33 26 3 4 1 7 -6 7 -7 0 -9 5
-6 10 7 11 2 14 -8 4z m43 -150 c0 -2 -7 -4 -15 -4 -8 0 -15 4 -15 10 0 5 7 7
15 4 8 -4 15 -8 15 -10z"/>
<path d="M1107 1751 c-3 -13 -1 -18 9 -14 7 2 10 11 7 19 -7 19 -10 18 -16 -5z"/>
<path d="M648 1707 c-21 -17 -25 -26 -17 -37 9 -13 10 -12 5 2 -3 11 2 19 15
23 10 4 19 11 19 16 0 6 5 7 12 3 7 -4 8 -3 4 4 -9 15 -6 16 -38 -11z"/>
<path d="M1805 1679 c-4 -6 -5 -12 -2 -15 2 -3 7 2 10 11 7 17 1 20 -8 4z"/>
<path d="M1891 1664 c0 -11 3 -14 6 -6 3 7 2 16 -1 19 -3 4 -6 -2 -5 -13z"/>
<path d="M900 1658 c0 -4 7 -8 15 -8 8 0 15 4 15 8 0 5 -7 9 -15 9 -8 0 -15
-4 -15 -9z"/>
<path d="M569 1633 c-13 -16 -12 -17 4 -4 9 7 17 15 17 17 0 8 -8 3 -21 -13z"/>
<path d="M994 1610 c0 -10 6 -16 13 -13 7 3 13 9 13 13 0 4 -6 10 -13 13 -7 3
-13 -3 -13 -13z"/>
<path d="M930 1611 c0 -5 5 -13 10 -16 6 -3 10 -2 10 4 0 5 -4 13 -10 16 -5 3
-10 2 -10 -4z"/>
<path d="M755 1600 c-3 -5 1 -10 9 -10 9 0 16 5 16 10 0 6 -4 10 -9 10 -6 0
-13 -4 -16 -10z"/>
<path d="M586 1563 c-6 -14 -5 -15 5 -6 7 7 10 15 7 18 -3 3 -9 -2 -12 -12z"/>
<path d="M758 1573 c7 -3 16 -2 19 1 4 3 -2 6 -13 5 -11 0 -14 -3 -6 -6z"/>
<path d="M1285 1570 c-7 -12 12 -12 40 0 18 8 17 9 -7 9 -15 1 -30 -3 -33 -9z"/>
<path d="M400 1525 c-16 -31 -8 -42 22 -27 13 6 17 11 10 11 -7 1 -11 5 -8 9
2 4 1 13 -3 20 -5 9 -12 5 -21 -13z"/>
<path d="M4028 1543 c7 -3 16 -2 19 1 4 3 -2 6 -13 5 -11 0 -14 -3 -6 -6z"/>
<path d="M523 1520 c-1 -11 2 -20 7 -20 4 0 7 7 6 15 -3 23 -12 26 -13 5z"/>
<path d="M4087 1529 c7 -7 15 -10 18 -7 3 3 -2 9 -12 12 -14 6 -15 5 -6 -5z"/>
<path d="M561 1479 c-18 -24 -20 -33 -11 -42 10 -9 14 -9 17 1 3 6 8 10 12 7
4 -2 8 11 9 30 1 19 0 35 -1 35 -2 0 -14 -14 -26 -31z"/>
<path d="M1333 1493 c-18 -7 -16 -20 2 -20 8 0 15 6 15 14 0 7 -1 13 -2 12 -2
0 -9 -3 -15 -6z"/>
<path d="M4198 1483 c7 -3 16 -2 19 1 4 3 -2 6 -13 5 -11 0 -14 -3 -6 -6z"/>
<path d="M473 1445 c0 -8 4 -12 9 -9 5 3 6 10 3 15 -9 13 -12 11 -12 -6z"/>
<path d="M410 1435 c0 -8 2 -15 4 -15 2 0 6 7 10 15 3 8 1 15 -4 15 -6 0 -10
-7 -10 -15z"/>
<path d="M515 1429 c-4 -6 -5 -12 -2 -15 2 -3 7 2 10 11 7 17 1 20 -8 4z"/>
<path d="M705 1424 c13 -14 19 -14 28 -4 9 10 9 11 0 6 -6 -3 -14 -2 -18 4 -3
5 -11 10 -16 10 -6 0 -3 -7 6 -16z"/>
<path d="M450 1409 c0 -5 -5 -7 -11 -3 -8 5 -11 -1 -8 -17 4 -24 -33 -74 -45
-61 -3 3 -6 0 -6 -6 0 -6 -7 -9 -17 -5 -11 4 -14 3 -9 -6 4 -6 4 -25 1 -42 -5
-24 -10 -28 -20 -19 -11 9 -15 7 -18 -12 -9 -51 -6 -89 6 -83 7 4 5 1 -4 -7
-9 -7 -14 -19 -11 -27 2 -8 1 -11 -4 -8 -10 6 -30 -13 -29 -28 0 -5 4 -16 8
-23 5 -7 5 -11 0 -10 -4 2 -19 -5 -33 -15 -13 -9 -19 -17 -13 -17 8 0 10 -7 6
-17 -6 -15 -8 -14 -16 5 -6 12 -14 22 -20 22 -5 0 -6 7 -3 16 3 8 2 12 -4 9
-14 -8 -13 -21 3 -37 22 -22 27 -47 11 -56 -12 -7 -12 -10 1 -27 9 -12 14 -15
15 -7 0 7 5 10 12 6 7 -4 8 -3 4 5 -17 27 40 121 74 121 6 0 9 3 8 8 -1 4 3
17 10 28 6 12 8 24 5 28 -3 3 -2 6 4 6 5 0 20 21 33 48 13 26 31 55 39 65 8 9
11 17 8 17 -4 0 2 21 12 48 10 26 16 53 14 60 -3 6 2 12 11 12 9 0 16 8 16 20
0 11 -7 20 -15 20 -8 0 -15 -5 -15 -11z m-115 -178 c3 -5 2 -12 -3 -15 -5 -3
-9 1 -9 9 0 17 3 19 12 6z"/>
<path d="M550 1408 c0 -4 5 -8 11 -8 6 0 9 -9 6 -20 -3 -11 -1 -18 4 -15 13 9
7 52 -8 52 -7 0 -13 -4 -13 -9z"/>
<path d="M4396 1401 c-3 -4 6 -19 19 -31 26 -24 33 -14 15 21 -11 20 -25 25
-34 10z"/>
<path d="M3765 1390 c3 -5 11 -10 16 -10 6 0 7 5 4 10 -3 6 -11 10 -16 10 -6
0 -7 -4 -4 -10z"/>
<path d="M709 1378 c-8 -27 -6 -38 5 -29 7 6 17 7 22 3 4 -4 2 1 -5 11 -12 16
-20 21 -22 15z"/>
<path d="M4455 1349 c-4 -6 -1 -15 6 -19 16 -9 71 -51 162 -123 33 -26 63 -45
66 -41 3 3 -1 9 -8 13 -9 6 -10 11 -2 15 6 4 11 16 11 27 0 21 -21 25 -49 9
-15 -7 -25 -3 -50 20 -17 17 -36 30 -41 30 -7 0 -7 7 1 21 10 20 9 21 -21 17
-24 -4 -35 1 -50 19 -12 16 -21 20 -25 12z"/>
<path d="M4030 1346 c0 -2 7 -7 16 -10 8 -3 12 -2 9 4 -6 10 -25 14 -25 6z"/>
<path d="M310 1331 c0 -6 4 -12 8 -15 5 -3 9 1 9 9 0 8 -4 15 -9 15 -4 0 -8
-4 -8 -9z"/>
<path d="M4190 1336 c0 -2 7 -7 16 -10 8 -3 12 -2 9 4 -6 10 -25 14 -25 6z"/>
<path d="M3795 1308 c-4 -10 -5 -25 -1 -33 3 -8 -1 -21 -9 -29 -19 -18 -19
-23 0 -23 8 0 15 8 15 17 0 9 5 21 10 26 7 7 7 19 1 35 -8 21 -10 22 -16 7z"/>
<path d="M4178 1283 c7 -3 16 -2 19 1 4 3 -2 6 -13 5 -11 0 -14 -3 -6 -6z"/>
<path d="M4664 1273 c2 -9 8 -18 15 -19 6 -1 7 0 1 3 -5 2 -8 9 -5 13 3 5 1
11 -4 14 -5 4 -8 -2 -7 -11z"/>
<path d="M4438 1240 c-3 -17 -1 -33 4 -36 4 -3 8 11 8 30 0 44 -6 47 -12 6z"/>
<path d="M4487 1259 c7 -8 10 -28 7 -44 -4 -24 -3 -26 10 -16 11 9 15 9 19 -1
4 -8 6 -7 6 5 1 9 -4 17 -10 17 -5 0 -8 4 -5 9 3 4 -4 17 -17 27 -13 11 -17
13 -10 3z"/>
<path d="M4210 1234 c0 -8 5 -12 10 -9 6 3 10 10 10 16 0 5 -4 9 -10 9 -5 0
-10 -7 -10 -16z"/>
<path d="M4540 1231 c0 -5 7 -11 15 -15 8 -3 15 -1 15 3 0 5 -7 11 -15 15 -8
3 -15 1 -15 -3z"/>
<path d="M4573 1194 c-6 -13 -7 -24 -2 -24 4 0 7 -14 6 -30 -2 -25 -4 -28 -13
-15 -19 26 -22 20 -15 -36 2 -14 35 -19 43 -7 6 10 2 127 -5 135 -1 1 -7 -9
-14 -23z m17 -100 c0 -8 -19 -13 -24 -6 -3 5 1 9 9 9 8 0 15 -2 15 -3z"/>
<path d="M4189 1208 c-6 -15 -4 -60 2 -70 6 -8 9 3 9 30 0 23 -2 42 -5 42 -3
0 -5 -1 -6 -2z"/>
<path d="M430 1175 c0 -15 2 -17 9 -6 5 7 15 17 22 22 10 6 7 8 -9 6 -15 -1
-22 -8 -22 -22z"/>
<path d="M4783 1176 c-16 -19 -29 -24 -50 -20 -27 4 -27 3 -9 -11 11 -8 23
-15 27 -15 4 0 9 -7 11 -16 2 -11 11 -2 26 25 28 50 25 72 -5 37z"/>
<path d="M4430 1180 c12 -8 13 -13 2 -30 -10 -17 -10 -20 3 -20 10 0 15 10 15
30 0 22 -5 30 -17 30 -15 0 -16 -2 -3 -10z"/>
<path d="M4820 1158 c0 -33 9 -58 21 -58 14 0 10 43 -6 64 -14 19 -15 19 -15
-6z"/>
<path d="M4351 1154 c0 -11 3 -14 6 -6 3 7 2 16 -1 19 -3 4 -6 -2 -5 -13z"/>
<path d="M4377 1163 c-4 -3 -7 -23 -7 -44 0 -32 -3 -37 -17 -32 -15 6 -16 5
-3 -9 8 -9 17 -14 19 -12 4 4 19 104 16 104 -1 0 -5 -3 -8 -7z"/>
<path d="M4484 1153 c2 -13 -1 -23 -7 -23 -7 0 -5 -6 4 -13 9 -7 14 -22 13
-34 -2 -12 0 -24 5 -27 5 -3 11 12 13 34 2 22 1 40 -3 40 -3 0 -11 10 -18 23
l-12 22 5 -22z"/>
<path d="M4516 1161 c-4 -7 -5 -15 -2 -18 9 -9 19 4 14 18 -4 11 -6 11 -12 0z"/>
<path d="M4210 1118 c0 -17 -7 -27 -19 -31 -14 -3 -17 -11 -13 -32 4 -23 2
-27 -11 -22 -9 3 -18 0 -21 -9 -3 -8 1 -14 8 -14 8 0 17 -7 20 -16 5 -14 4
-15 -8 -5 -12 10 -16 8 -22 -11 -4 -13 -7 -29 -6 -35 2 -7 -2 -13 -9 -13 -8 0
-10 16 -6 54 4 43 3 54 -8 50 -7 -3 -11 -14 -7 -26 4 -15 2 -19 -7 -13 -10 5
-11 3 -4 -11 18 -39 4 -74 -30 -74 -16 0 -18 -3 -9 -9 17 -10 23 -62 10 -78
-6 -7 -8 -22 -5 -33 3 -11 1 -23 -4 -26 -5 -3 -9 -2 -8 3 1 4 1 19 0 32 -1 18
-4 21 -13 13 -10 -8 -12 1 -10 43 2 31 10 59 18 66 20 17 17 28 -6 22 -16 -4
-20 -14 -21 -47 0 -22 -1 -57 -2 -76 -1 -26 2 -34 13 -32 8 1 4 -6 -9 -16 -13
-11 -21 -24 -17 -31 4 -6 1 -11 -8 -11 -8 0 -18 -4 -21 -10 -3 -6 1 -7 12 -4
11 3 9 0 -5 -8 -12 -8 -19 -18 -15 -23 4 -4 2 -5 -5 -1 -7 4 -10 11 -7 15 2 5
-6 9 -19 9 -12 0 -23 -6 -23 -14 0 -7 5 -11 10 -7 5 3 7 -9 4 -30 -6 -46 5
-66 27 -48 13 11 16 11 17 0 1 -8 3 -27 5 -44 2 -24 1 -27 -7 -12 -6 9 -14 15
-19 12 -5 -3 -12 0 -16 6 -4 7 -3 9 4 5 6 -3 13 -3 15 2 3 4 -6 12 -19 19 -13
6 -22 7 -19 3 3 -5 -5 -11 -17 -13 l-23 -4 24 -2 c17 -1 21 -5 17 -17 -3 -9
-6 -18 -6 -20 0 -2 -6 -4 -14 -4 -8 0 -18 -4 -21 -10 -4 -6 1 -7 10 -3 10 3
21 0 26 -8 7 -12 10 -12 18 -1 7 11 9 11 14 -2 4 -9 -1 -16 -11 -19 -16 -4
-15 -5 1 -6 9 0 17 -9 16 -18 0 -11 -3 -13 -6 -5 -2 6 -13 12 -24 12 -10 0
-20 6 -20 13 -1 6 -4 -1 -8 -17 -3 -16 -11 -31 -18 -33 -7 -3 -9 3 -6 16 4 15
1 21 -11 21 -9 0 -16 8 -17 18 0 12 -3 10 -10 -7 -5 -13 -7 -33 -3 -44 4 -13
2 -17 -5 -13 -6 4 -11 2 -11 -3 0 -6 -5 -11 -11 -11 -5 0 -7 5 -4 10 3 6 -3
11 -14 11 -33 2 -39 4 -46 11 -4 4 -13 4 -21 1 -8 -3 -14 1 -14 11 0 9 8 16
18 17 11 0 12 2 4 6 -7 3 -19 0 -27 -7 -10 -9 -19 -9 -36 0 -12 7 -19 8 -15 2
3 -5 -1 -12 -8 -15 -14 -5 -14 -53 0 -66 2 -2 -5 -10 -16 -18 -30 -21 -43 -7
-22 25 16 24 16 26 0 20 -11 -5 -18 -1 -22 10 -2 9 -3 2 -1 -15 3 -34 -7 -49
-25 -38 -8 5 -7 12 2 23 12 15 11 16 -6 2 -10 -8 -31 -13 -47 -12 -26 3 -29 1
-29 -27 0 -16 -4 -33 -10 -36 -5 -3 -10 -13 -10 -21 0 -8 5 -12 10 -9 6 3 10
1 10 -6 0 -8 4 -8 15 1 13 10 15 9 15 -12 0 -13 -7 -33 -15 -44 -20 -27 -18
-36 5 -22 13 8 20 24 20 43 0 24 2 27 11 15 8 -11 9 -7 5 17 -3 18 -2 34 2 37
11 6 29 -18 26 -37 -1 -9 3 -17 9 -17 7 0 3 -7 -7 -15 -10 -8 -22 -12 -26 -10
-4 2 -7 -2 -7 -10 0 -18 9 -19 23 -5 7 7 11 6 11 -4 0 -8 -4 -13 -8 -10 -4 2
-10 0 -14 -6 -3 -5 2 -10 12 -11 16 0 16 -1 -2 -8 -11 -5 -24 -6 -29 -3 -18
11 -86 12 -86 1 0 -5 -4 -7 -10 -4 -5 3 -10 1 -10 -4 0 -6 -4 -11 -9 -11 -5 0
-7 8 -4 19 5 18 -1 21 -84 33 -6 1 -8 8 -5 17 4 10 7 11 10 3 2 -7 10 -12 18
-12 11 0 13 11 10 45 -3 24 -2 44 2 44 20 -3 23 3 11 18 -12 16 -12 17 2 5 9
-7 23 -11 30 -9 8 2 11 2 6 0 -4 -3 -4 -9 -1 -14 3 -6 1 -16 -5 -23 -9 -11 -8
-14 6 -12 21 1 37 22 28 36 -6 9 8 14 28 11 5 -1 6 3 2 8 -3 6 -12 8 -20 4
-10 -3 -15 1 -15 12 0 9 4 14 9 11 5 -3 11 0 14 7 3 8 -3 14 -16 14 -11 1 -24
8 -29 15 -6 11 -10 11 -17 0 -7 -11 -9 -11 -14 2 -4 11 -1 16 11 16 16 1 16 1
-1 11 -15 9 -15 12 -3 25 8 8 27 14 43 15 23 0 19 3 -17 13 -51 14 -51 14 -54
-8 -1 -9 -6 -15 -12 -14 -5 2 -8 7 -6 11 1 5 -1 6 -6 3 -4 -3 -7 -18 -6 -34 2
-26 -1 -30 -21 -27 -16 1 -22 -2 -18 -11 3 -8 0 -14 -6 -14 -6 0 -11 5 -11 10
0 6 -12 10 -26 10 -35 0 -26 -25 10 -26 14 -1 29 -4 33 -8 7 -7 -27 -9 -96 -6
-29 1 -41 -2 -37 -9 4 -6 1 -11 -6 -11 -9 0 -9 -3 2 -10 10 -6 11 -10 3 -10
-7 0 -13 -5 -13 -11 0 -16 -26 -39 -44 -39 -9 0 -16 4 -16 10 0 5 -7 7 -15 4
-8 -4 -13 -10 -10 -14 6 -10 -20 -20 -53 -20 -25 0 -26 -1 -8 -18 14 -12 20
-14 23 -4 3 6 9 10 14 6 11 -6 12 -25 2 -21 -5 1 -10 -2 -13 -8 -3 -5 6 -12
19 -13 14 -2 21 0 17 7 -4 6 7 9 31 7 21 -2 41 1 45 8 6 8 8 7 8 -2 0 -7 5
-10 10 -7 21 13 9 24 -25 23 -20 -1 -40 3 -45 8 -10 10 106 10 145 0 24 -6 45
9 23 16 -9 3 -9 6 0 12 7 4 12 2 12 -4 0 -6 5 -8 11 -4 6 3 4 -5 -5 -18 -16
-25 -34 -28 -70 -13 -23 10 -42 -16 -20 -28 8 -5 11 -13 8 -19 -4 -7 -2 -8 5
-4 7 5 9 13 4 20 -4 7 1 3 11 -9 16 -16 18 -17 13 -3 -7 19 8 25 18 8 4 -6 11
-8 16 -5 5 3 6 -1 3 -9 -8 -20 0 -20 20 0 9 8 16 10 16 4 0 -6 -7 -13 -15 -16
-8 -4 -12 -11 -8 -17 3 -6 1 -7 -5 -3 -7 4 -12 1 -12 -9 0 -9 5 -13 10 -10 15
9 12 0 -9 -23 -10 -12 -25 -22 -32 -22 -11 0 -11 -2 1 -10 12 -7 8 -10 -15
-11 -23 0 -26 -2 -12 -8 17 -6 16 -8 -7 -21 -14 -7 -26 -17 -26 -22 0 -5 -4
-6 -10 -3 -17 11 -50 14 -50 5 0 -4 -9 -6 -20 -3 -12 3 -20 0 -20 -7 0 -8 -8
-10 -24 -6 -14 3 -27 2 -30 -3 -4 -5 60 -10 153 -10 158 -2 159 -2 167 21 4
13 7 28 6 34 -2 8 10 10 33 7 30 -4 34 -2 28 13 -4 10 -8 13 -10 7 -6 -16 -53
-3 -53 16 0 13 2 13 9 2 6 -9 8 0 7 27 -1 22 1 39 5 36 4 -2 10 2 13 8 3 7 3
2 0 -12 -4 -23 -2 -25 31 -25 19 0 35 3 35 8 0 4 -9 7 -19 7 -11 0 -23 5 -27
11 -5 8 1 10 19 7 15 -3 28 -1 30 5 1 5 11 8 22 6 17 -4 18 -5 2 -21 -20 -19
-22 -32 -4 -22 7 5 7 2 -2 -10 -12 -14 -12 -17 -1 -14 8 2 14 -3 15 -9 0 -7 3
-12 6 -10 3 1 14 -5 24 -13 16 -13 17 -12 13 5 -2 11 -10 19 -17 17 -7 -1 -11
2 -9 8 2 7 7 11 11 11 4 -1 18 10 31 24 23 25 24 25 29 4 4 -15 2 -19 -9 -15
-11 4 -11 1 2 -18 14 -22 14 -25 -3 -29 -11 -3 -7 -5 11 -6 23 -1 27 2 23 18
-3 14 0 17 15 13 13 -3 18 -11 15 -23 -3 -11 -1 -19 4 -19 5 0 9 5 9 10 0 6 4
10 9 10 5 0 7 -10 3 -22 -3 -14 -2 -19 6 -14 7 4 12 19 13 34 0 15 3 21 6 15
7 -19 22 -16 18 5 -1 9 0 11 2 4 3 -6 9 -12 14 -12 6 0 7 5 4 10 -3 6 -1 10 4
10 16 0 13 -11 -6 -33 -17 -19 -17 -20 4 -8 15 7 24 8 28 1 8 -13 25 -3 25 15
0 9 -7 12 -17 9 -15 -5 -15 -3 1 10 22 18 56 21 56 6 0 -5 7 -10 15 -10 11 0
15 -12 15 -47 0 -44 -2 -48 -25 -49 -14 -1 -25 3 -25 10 0 7 -3 6 -9 -2 -6
-10 -10 -9 -14 7 -3 14 -1 19 6 15 9 -5 9 -4 0 6 -12 13 -37 4 -28 -11 4 -5
-5 -9 -19 -9 -16 0 -26 -6 -26 -15 0 -8 5 -15 11 -15 5 0 7 5 4 10 -3 6 -1 10
4 10 6 0 11 -4 11 -10 0 -11 107 -12 155 -1 23 5 29 12 28 28 -2 13 4 23 15
26 12 3 11 5 -5 6 -14 1 -23 -5 -23 -14 0 -8 -9 -15 -21 -15 -11 0 -17 5 -14
10 3 6 0 10 -7 10 -9 0 -9 3 2 10 10 6 11 10 3 10 -18 0 -16 37 2 44 9 3 18
-1 22 -9 4 -13 8 -13 21 -3 9 8 13 8 9 2 -4 -7 0 -17 7 -23 11 -9 16 -9 22 0
5 8 3 9 -6 4 -9 -6 -11 -4 -5 5 5 8 4 11 -3 7 -6 -5 -8 0 -5 12 6 24 25 32 44
20 11 -7 9 -9 -8 -9 -25 0 -29 -10 -11 -28 7 -7 8 -12 4 -12 -5 0 -3 -7 4 -15
9 -11 9 -15 1 -15 -7 0 -9 -5 -6 -10 10 -15 23 -12 29 8 4 14 5 14 4 -3 -1
-60 -49 -55 522 -55 l521 0 -2 229 c-1 186 -4 228 -15 224 -7 -3 -12 -10 -11
-16 1 -6 -7 -13 -18 -15 -16 -3 -18 -1 -7 9 20 21 14 29 -12 18 -14 -7 -22
-17 -19 -25 3 -9 -1 -14 -12 -14 -9 0 -13 -4 -10 -10 3 -5 1 -10 -5 -10 -6 0
-9 -4 -6 -9 3 -5 -1 -14 -8 -21 -12 -9 -21 -7 -43 6 l-28 18 20 -23 20 -24
-22 13 c-18 12 -24 12 -39 -1 -10 -8 -15 -9 -11 -3 8 14 -41 16 -67 2 -13 -7
-16 -7 -12 1 6 10 -1 10 -43 2 -2 -1 2 -7 8 -15 8 -9 8 -16 2 -20 -13 -9 -18
3 -16 42 1 26 -2 31 -15 26 -27 -10 -50 -13 -65 -7 -18 6 -20 43 -3 43 6 0 9
3 5 6 -7 7 32 52 57 66 10 5 16 6 13 1 -3 -5 -2 -15 4 -23 5 -8 9 -10 9 -4 0
19 38 56 45 44 10 -17 45 -12 39 5 -4 8 -1 16 5 16 6 1 15 2 21 3 5 0 14 6 21
13 9 9 17 9 33 1 20 -10 20 -10 6 7 -14 17 -14 18 8 6 12 -6 27 -9 32 -6 5 3
12 0 16 -6 5 -8 3 -9 -7 -4 -11 6 -12 5 -2 -5 10 -10 15 -11 27 -1 11 9 15 9
19 -1 4 -10 6 -10 6 0 1 6 6 12 12 12 5 0 8 -4 5 -9 -3 -5 1 -12 9 -15 13 -5
14 -2 4 16 -10 18 -9 20 5 15 10 -4 15 -3 11 3 -7 12 -37 9 -46 -4 -4 -4 -9
-4 -13 2 -7 12 59 36 74 27 6 -4 7 1 3 11 -4 12 -3 15 5 10 9 -5 12 10 12 53
l0 60 -42 1 c-69 1 -78 3 -78 16 0 6 -7 14 -15 18 -8 3 -15 0 -15 -6 0 -9 -3
-9 -12 0 -10 10 -10 15 2 22 12 8 13 10 1 10 -8 0 -12 2 -9 5 3 3 16 1 30 -4
21 -8 28 -5 43 15 12 16 21 21 25 13 5 -6 12 2 18 20 7 18 7 29 2 26 -6 -4
-10 -1 -10 4 0 6 7 11 15 11 11 0 12 5 5 26 -6 14 -6 23 -1 20 5 -3 12 5 15
19 4 14 11 25 16 25 26 0 -1 79 -34 102 -15 11 -66 10 -66 -1 0 -5 -7 -12 -16
-15 -14 -5 -15 -4 -5 8 9 11 9 16 -1 22 -7 4 -10 4 -6 -1 5 -5 -1 -15 -13 -23
-18 -12 -23 -12 -42 5 -15 12 -18 13 -9 2 10 -13 9 -19 -3 -29 -13 -11 -14
-10 -9 3 4 12 0 14 -18 11 -21 -5 -22 -4 -5 9 14 12 15 16 3 20 -19 7 -49 -52
-35 -69 7 -9 2 -12 -21 -10 -16 1 -30 -2 -30 -8 0 -15 -29 27 -30 42 0 7 5 10
12 6 7 -4 8 -3 4 4 -14 24 -26 11 -26 -28 0 -23 -5 -40 -11 -40 -6 0 -9 -6 -6
-14 3 -8 1 -16 -5 -18 -21 -7 3 -28 33 -28 19 0 29 -5 29 -15 0 -9 -9 -15 -24
-15 -14 0 -28 -4 -31 -10 -3 -5 3 -10 14 -10 12 0 21 -5 21 -11 0 -6 -7 -8
-16 -5 -8 3 -13 2 -9 -3 3 -5 -1 -11 -7 -14 -10 -3 -10 -7 0 -19 17 -21 6 -47
-19 -41 -14 4 -18 1 -13 -10 3 -10 12 -13 22 -9 15 5 15 3 4 -10 -17 -21 -49
-19 -55 4 -3 10 -1 18 5 18 5 0 8 8 6 18 -1 9 1 23 5 30 5 7 3 12 -4 12 -8 0
-8 4 -2 13 15 18 22 56 12 62 -4 3 -5 13 -2 22 5 12 3 14 -8 8 -11 -7 -12 -6
-3 6 12 16 13 40 1 37 -5 -2 -13 5 -18 15 -6 9 -14 15 -20 12 -5 -4 -9 -1 -9
4 0 6 -4 11 -9 11 -5 0 -7 -8 -4 -19 3 -10 -1 -22 -8 -27 -9 -5 -11 -2 -6 9 4
11 -1 20 -13 27 -11 6 -20 18 -20 28 0 14 -2 15 -10 2 -6 -10 -5 -17 6 -23 8
-5 11 -13 8 -19 -4 -7 -2 -8 4 -4 7 4 12 1 12 -8 0 -8 -5 -18 -12 -22 -7 -4
-8 -3 -4 4 5 8 2 10 -8 6 -9 -3 -13 -10 -10 -15 3 -5 0 -9 -6 -9 -7 0 -5 -7 4
-16 18 -17 22 -49 6 -39 -6 4 -8 11 -5 16 4 5 -1 9 -9 9 -10 0 -16 9 -17 23
-2 25 -2 24 6 67 3 19 2 29 -4 26 -5 -4 -12 0 -14 6 -3 7 -4 -6 -2 -29 3 -33
0 -43 -11 -43 -8 0 -12 -5 -9 -10 12 -20 15 -59 5 -65 -6 -4 -8 -11 -4 -16 3
-6 -2 -17 -12 -25 -11 -9 -13 -13 -6 -9 7 4 12 -1 12 -11 0 -10 -3 -14 -7 -11
-3 4 -12 2 -20 -4 -10 -9 -13 -5 -14 22 0 28 -2 30 -8 14 -5 -11 -7 -23 -4
-27 6 -12 -11 -10 -23 2 -7 7 -9 1 -6 -20 3 -19 0 -30 -7 -30 -7 0 -9 -5 -5
-11 3 -6 0 -15 -7 -21 -11 -7 -9 -8 6 -6 14 2 21 12 23 36 2 17 7 32 12 32 9
0 5 -35 -9 -72 -4 -13 -6 -36 -4 -53 4 -29 4 -29 -11 -10 l-15 20 -2 -20 c-1
-11 -3 -25 -3 -32 -1 -6 -5 -15 -10 -20 -5 -4 -6 -3 -2 5 4 7 1 12 -9 12 -9 0
-13 -4 -10 -10 3 -5 2 -17 -3 -26 -6 -11 -11 -13 -16 -5 -4 6 -2 11 4 11 8 0
8 6 0 20 -6 12 -19 19 -33 17 -20 -2 -22 3 -23 48 -1 28 3 56 9 63 5 6 5 12 1
12 -5 0 -8 20 -6 45 4 40 6 44 20 33 13 -11 14 -10 4 9 -15 27 1 39 23 17 20
-20 21 -19 28 34 5 39 -5 58 -16 30 -3 -8 -6 -6 -6 4 -1 12 -7 16 -18 12 -15
-5 -16 -4 -3 5 10 7 11 14 5 19 -6 4 -10 18 -8 32 5 56 5 132 -1 137 -3 4 -6
-5 -6 -19z m625 -96 c-3 -3 -11 0 -18 7 -9 10 -8 11 6 5 10 -3 15 -9 12 -12z
m13 -53 c-10 -7 -10 -9 0 -10 6 -1 17 -2 22 -3 20 -2 14 -19 -8 -21 -30 -2
-47 19 -27 35 8 7 16 20 16 29 1 12 2 12 6 -3 3 -10 -1 -22 -9 -27z m-176 -6
c10 25 38 22 31 -3 -3 -11 -10 -21 -17 -22 -6 0 -15 -2 -21 -2 -5 -1 -16 -6
-24 -10 -11 -7 -13 -5 -8 8 4 10 10 30 14 44 l7 27 6 -30 c4 -24 7 -26 12 -12z
m-122 7 c0 -5 -2 -10 -4 -10 -3 0 -8 5 -11 10 -3 6 -1 10 4 10 6 0 11 -4 11
-10z m175 -9 c-3 -6 10 -13 30 -17 19 -3 35 -11 35 -18 0 -6 4 -5 9 3 6 9 15
11 27 6 11 -5 23 -9 28 -9 5 -1 11 -12 13 -25 2 -17 -1 -22 -11 -18 -21 8 -28
-4 -10 -18 15 -10 14 -16 -8 -56 -13 -25 -29 -44 -36 -43 -7 1 -8 0 -2 -3 24
-11 0 -56 -26 -46 -7 2 -11 12 -8 21 3 9 -1 7 -7 -5 l-12 -23 -18 21 c-16 19
-19 20 -25 5 -3 -9 -11 -16 -16 -16 -6 0 -8 7 -4 15 4 10 -1 15 -14 15 -11 0
-20 -4 -20 -8 0 -5 -6 -17 -14 -28 -8 -10 -1 23 15 74 20 61 35 92 45 92 8 0
14 6 13 13 -3 28 2 35 24 30 l22 -5 -23 19 c-13 10 -20 22 -16 26 10 10 16 9
9 -2z m-590 -51 c3 -5 1 -10 -4 -10 -6 0 -11 5 -11 10 0 6 2 10 4 10 3 0 8 -4
11 -10z m95 -1 c0 -5 5 -7 10 -4 6 3 10 1 10 -4 0 -6 -8 -11 -18 -11 -10 0
-19 7 -19 15 0 8 4 15 9 15 4 0 8 -5 8 -11z m223 -39 c3 -11 1 -18 -4 -14 -5
3 -9 0 -9 -6 0 -6 8 -10 18 -9 31 3 43 -1 37 -11 -3 -5 3 -10 14 -10 12 0 21
-5 21 -11 0 -5 5 -7 10 -4 6 3 10 1 10 -4 0 -14 -17 -14 -25 -1 -3 6 -17 10
-31 10 -14 0 -22 4 -19 10 3 6 -3 10 -14 10 -12 0 -21 -7 -21 -15 0 -8 -4 -15
-10 -15 -7 0 -8 36 -1 93 2 14 18 -2 24 -23z m-329 -35 c3 -8 1 -15 -4 -15 -6
0 -10 7 -10 15 0 8 2 15 4 15 2 0 6 -7 10 -15z m228 -87 c-10 -10 -10 -8 -2
37 1 6 4 2 7 -9 3 -10 0 -23 -5 -28z m153 24 c-3 -3 -11 0 -18 7 -9 10 -8 11
6 5 10 -3 15 -9 12 -12z m105 -88 c11 -12 -25 -22 -39 -11 -12 9 -13 9 -7 0 5
-9 2 -11 -8 -7 -27 10 -6 36 23 29 14 -4 28 -9 31 -11z m-643 -20 c-3 -3 -12
-4 -19 -1 -8 3 -5 6 6 6 11 1 17 -2 13 -5z m504 -26 c0 -10 2 -10 6 0 6 14 33
16 33 2 0 -5 5 -10 11 -10 5 0 7 5 4 10 -3 6 1 10 9 10 8 0 18 -5 22 -12 4 -7
3 -8 -4 -4 -8 4 -12 0 -12 -12 0 -10 7 -19 15 -19 8 0 12 3 10 7 -2 3 0 12 6
20 6 11 9 6 9 -17 0 -35 -2 -36 -37 -27 -13 4 -20 11 -16 20 3 9 -2 14 -16 14
-16 0 -21 -6 -21 -24 0 -14 -4 -28 -10 -31 -6 -4 -9 4 -7 17 1 15 -3 22 -11
20 -9 -2 -11 4 -7 18 4 11 2 20 -4 20 -6 0 -11 -6 -11 -14 0 -8 -4 -17 -9 -20
-4 -3 -6 6 -3 19 5 26 41 36 43 13z m-356 -8 c3 -6 -1 -7 -9 -4 -18 7 -21 14
-7 14 6 0 13 -4 16 -10z m192 -22 c-3 -7 -5 -2 -5 12 0 14 2 19 5 13 2 -7 2
-19 0 -25z m40 12 c-4 -14 0 -20 11 -21 15 -1 15 -2 0 -6 -21 -5 -24 -23 -5
-23 12 0 14 -27 8 -107 -1 -8 -8 -6 -21 7 -24 24 -40 26 -40 5 0 -10 -10 -15
-31 -15 -16 0 -28 4 -24 9 3 5 1 12 -5 16 -5 3 -10 12 -10 18 0 7 4 6 10 -3 8
-13 10 -13 10 2 0 9 -5 18 -11 20 -17 6 -1 48 17 48 8 0 12 5 9 10 -3 6 -1 10
5 10 8 0 11 -15 9 -44 -2 -24 -1 -42 4 -39 4 2 7 11 7 19 0 8 5 14 10 14 6 0
10 -4 10 -10 0 -19 16 -10 17 11 1 12 -7 24 -20 30 -22 9 -22 9 2 5 21 -4 23
-2 19 24 -4 25 1 35 21 39 2 1 1 -8 -2 -19z m57 -6 c-10 -8 -13 -12 -5 -8 11
5 13 2 9 -13 -7 -26 22 -71 42 -66 8 2 3 -4 -12 -14 -16 -10 -28 -23 -28 -30
0 -7 -6 -13 -12 -13 -9 0 -13 20 -12 68 2 92 2 92 21 92 15 0 14 -2 -3 -16z
m-199 -4 c-3 -5 -1 -10 6 -10 7 0 10 -2 8 -5 -3 -2 -16 -1 -29 2 -22 6 -23 7
-4 14 26 10 26 10 19 -1z m13 -60 c0 -16 -4 -30 -9 -30 -6 0 -7 5 -4 10 3 6 1
10 -4 10 -6 0 -11 9 -11 20 0 33 27 23 28 -10z m-261 -6 c-3 -3 -12 -4 -19 -1
-8 3 -5 6 6 6 11 1 17 -2 13 -5z m521 -19 c-3 -3 -9 2 -12 12 -6 14 -5 15 5 6
7 -7 10 -15 7 -18z m87 15 c8 -13 -15 -13 -35 0 -12 8 -11 10 7 10 12 0 25 -4
28 -10z m-95 -55 c11 -13 10 -14 -4 -9 -9 3 -16 10 -16 15 0 13 6 11 20 -6z
m87 -11 c-1 -1 -18 1 -37 4 l-35 6 30 6 c17 3 33 1 37 -4 4 -6 6 -11 5 -12z
m-302 -24 c8 0 15 -7 15 -15 0 -14 -3 -13 -25 1 -14 9 -25 24 -25 33 1 14 2
14 11 -1 5 -10 17 -18 24 -18z m-405 5 c0 -8 -2 -15 -4 -15 -2 0 -6 7 -10 15
-3 8 -1 15 4 15 6 0 10 -7 10 -15z m365 -7 c11 -13 19 -26 17 -30 -1 -5 1 -7
6 -7 18 3 32 -2 32 -11 0 -5 -7 -7 -15 -4 -8 4 -26 3 -40 0 -23 -6 -24 -8 -11
-21 8 -8 16 -20 19 -27 2 -7 8 -9 13 -5 5 4 2 12 -6 17 -12 7 -12 12 -2 22 10
10 18 6 10 -5 -2 -2 3 -11 10 -20 10 -12 11 -21 3 -34 -6 -10 -11 -12 -11 -5
0 6 -9 12 -20 12 -11 0 -20 5 -20 11 0 5 -4 8 -9 4 -5 -3 -12 -1 -16 5 -3 5 2
10 12 11 16 0 16 1 -2 9 -11 5 -15 9 -10 10 6 0 1 7 -9 15 -11 8 -15 15 -8 15
6 0 9 7 5 16 -5 13 -2 15 15 9 24 -7 29 4 10 23 -7 7 -8 12 -2 12 5 0 18 -10
29 -22z m125 18 c0 -2 -7 -7 -16 -10 -8 -3 -12 -2 -9 4 6 10 25 14 25 6z
m-653 -20 c0 -7 -7 -12 -16 -11 -9 2 -20 4 -26 5 -5 1 -1 5 10 10 28 12 32 12
32 -4z m823 -6 c0 -5 -4 -10 -10 -10 -5 0 -10 5 -10 10 0 6 5 10 10 10 6 0 10
-4 10 -10z m35 -9 c3 -5 1 -12 -5 -16 -5 -3 -10 1 -10 9 0 18 6 21 15 7z
m-978 -88 c-2 -2 -22 1 -43 6 -24 5 -30 9 -16 10 14 1 22 7 22 19 1 14 4 13
21 -7 11 -13 18 -26 16 -28z m-157 25 c0 -11 -31 -10 -50 2 -10 6 -5 9 18 8
18 -1 32 -5 32 -10z m-218 -5 c-6 -2 -9 -9 -6 -15 4 -6 1 -9 -6 -6 -24 8 -23
28 2 27 13 0 17 -3 10 -6z m1318 -23 c13 -9 13 -10 0 -9 -8 0 -24 4 -35 9
l-20 9 20 0 c11 0 27 -4 35 -9z m-820 -10 c8 -5 11 -10 5 -10 -5 0 -17 5 -25
10 -8 5 -10 10 -5 10 6 0 17 -5 25 -10z m636 -5 c-3 -8 0 -15 6 -15 6 0 9 -2
6 -5 -3 -3 -13 -3 -22 1 -13 5 -14 9 -5 20 15 18 23 18 15 -1z m-171 -5 c3 -5
1 -10 -4 -10 -6 0 -11 5 -11 10 0 6 2 10 4 10 3 0 8 -4 11 -10z m-835 -24 c-7
-7 -13 -7 -20 0 -6 6 -3 10 10 10 13 0 16 -4 10 -10z m288 -2 c-2 -10 3 -19
10 -21 8 -3 10 2 6 14 -5 14 -4 15 4 4 11 -15 5 -41 -8 -41 -5 0 -16 -3 -25
-7 -14 -5 -16 -2 -10 18 5 13 8 30 8 37 0 6 4 12 9 12 5 0 8 -7 6 -16z m592
-3 c0 -6 -4 -13 -10 -16 -5 -3 -10 1 -10 9 0 9 5 16 10 16 6 0 10 -4 10 -9z
m-56 -27 c3 -8 2 -12 -4 -9 -6 3 -10 10 -10 16 0 14 7 11 14 -7z m-547 -48
c-3 -8 -1 -17 6 -20 7 -2 5 -5 -5 -5 -11 -1 -16 6 -15 19 1 11 5 20 10 20 5 0
7 -6 4 -14z m88 -26 c4 -6 -6 -10 -22 -9 -25 0 -26 1 -8 9 11 5 21 9 22 9 1 1
5 -3 8 -9z m-92 -36 c-7 -20 -19 -17 -19 5 0 11 6 17 13 14 6 -3 9 -11 6 -19z
m187 14 c0 -4 3 -7 8 -6 4 1 26 -2 50 -6 42 -8 52 -18 30 -32 -7 -5 -8 -3 -3
6 6 10 2 11 -19 6 -18 -4 -25 -3 -21 3 4 7 -5 9 -24 7 -18 -2 -31 1 -31 8 0 6
-5 4 -10 -4 -8 -12 -10 -11 -10 6 0 12 6 21 15 21 8 0 15 -4 15 -9z m-290 -12
c0 -3 -4 -8 -10 -11 -5 -3 -10 -1 -10 4 0 6 5 11 10 11 6 0 10 -2 10 -4z
m-183 -28 c-3 -8 -6 -5 -6 6 -1 11 2 17 5 13 3 -3 4 -12 1 -19z m849 10 c4 -7
3 -8 -4 -4 -6 4 -17 -2 -24 -14 -7 -11 -19 -20 -27 -20 -11 0 -9 4 5 15 10 8
15 15 9 15 -8 1 8 10 32 19 1 1 5 -4 9 -11z m-509 -4 c-3 -3 -12 -4 -19 -1 -8
3 -5 6 6 6 11 1 17 -2 13 -5z m340 -10 c-3 -3 -12 -4 -19 -1 -8 3 -5 6 6 6 11
1 17 -2 13 -5z m218 -34 c3 -5 1 -10 -4 -10 -6 0 -11 5 -11 10 0 6 2 10 4 10
3 0 8 -4 11 -10z m-219 -40 c2 -16 -1 -30 -6 -30 -6 0 -10 17 -10 37 0 42 11
38 16 -7z m-746 20 c0 -5 -8 -10 -17 -10 -15 0 -16 2 -3 10 19 12 20 12 20 0z
m807 -26 c-6 -6 -47 9 -47 17 0 5 11 3 25 -3 14 -6 24 -13 22 -14z m-799 -2
c10 -2 10 -5 0 -15 -14 -15 -42 -12 -58 8 -10 11 4 13 58 7z"/>
<path d="M4718 903 c7 -3 16 -2 19 1 4 3 -2 6 -13 5 -11 0 -14 -3 -6 -6z"/>
<path d="M4760 900 c0 -5 5 -10 10 -10 6 0 10 5 10 10 0 6 -4 10 -10 10 -5 0
-10 -4 -10 -10z"/>
<path d="M4205 420 c6 -10 4 -12 -8 -7 -9 3 -19 2 -22 -3 -9 -15 11 -20 30 -6
14 10 15 15 5 21 -9 6 -11 4 -5 -5z"/>
<path d="M4340 1115 c0 -8 2 -15 4 -15 2 0 6 7 10 15 3 8 1 15 -4 15 -6 0 -10
-7 -10 -15z"/>
<path d="M4523 1065 c0 -27 2 -38 4 -22 2 15 2 37 0 50 -2 12 -4 0 -4 -28z"/>
<path d="M4428 1093 c10 -4 10 -8 0 -21 -12 -15 -11 -16 4 -3 19 14 15 32 -5
30 -8 0 -8 -2 1 -6z"/>
<path d="M4266 1063 c-6 -14 -5 -15 5 -6 7 7 10 15 7 18 -3 3 -9 -2 -12 -12z"/>
<path d="M437 1029 c7 -7 15 -10 18 -7 3 3 -2 9 -12 12 -14 6 -15 5 -6 -5z"/>
<path d="M4021 1024 c0 -11 3 -14 6 -6 3 7 2 16 -1 19 -3 4 -6 -2 -5 -13z"/>
<path d="M4554 1029 c-3 -6 1 -18 10 -27 9 -9 16 -11 16 -5 0 6 -6 14 -12 16
-10 4 -9 8 2 16 9 7 10 11 3 11 -6 0 -15 -5 -19 -11z"/>
<path d="M4330 1005 c-1 -11 -4 -29 -6 -40 -10 -55 -8 -70 6 -70 8 -1 14 -7
12 -14 -1 -7 2 -10 8 -6 6 3 8 10 5 15 -3 5 2 16 11 24 10 10 11 16 4 16 -8 0
-11 10 -8 24 3 17 1 23 -8 19 -8 -3 -14 6 -17 24 -3 20 -5 22 -7 8z m20 -55
c0 -5 -5 -10 -11 -10 -5 0 -7 5 -4 10 3 6 8 10 11 10 2 0 4 -4 4 -10z m0 -30
c0 -5 -4 -10 -10 -10 -5 0 -10 5 -10 10 0 6 5 10 10 10 6 0 10 -4 10 -10z"/>
<path d="M4020 986 c0 -8 4 -17 9 -20 5 -4 7 3 4 14 -6 23 -13 26 -13 6z"/>
<path d="M4230 990 c0 -5 5 -10 11 -10 5 0 7 5 4 10 -3 6 -8 10 -11 10 -2 0
-4 -4 -4 -10z"/>
<path d="M200 980 c0 -5 5 -10 11 -10 5 0 7 5 4 10 -3 6 -8 10 -11 10 -2 0 -4
-4 -4 -10z"/>
<path d="M4257 970 c-14 -17 -14 -20 -2 -20 8 0 15 6 15 14 0 8 8 17 18 19 13
4 13 5 2 6 -9 0 -23 -8 -33 -19z"/>
<path d="M71 944 c0 -11 3 -14 6 -6 3 7 2 16 -1 19 -3 4 -6 -2 -5 -13z"/>
<path d="M176 946 c3 -8 0 -17 -6 -21 -8 -5 -6 -13 7 -28 10 -11 12 -17 6 -13
-9 5 -11 2 -7 -9 5 -12 9 -13 20 -4 19 15 18 39 -1 39 -8 0 -15 4 -15 10 0 5
7 7 16 3 14 -5 15 -3 5 15 -13 24 -34 30 -25 8z"/>
<path d="M3770 936 c0 -2 8 -10 18 -17 15 -13 16 -12 3 4 -13 16 -21 21 -21
13z"/>
<path d="M4070 930 c0 -5 5 -10 11 -10 5 0 7 5 4 10 -3 6 -8 10 -11 10 -2 0
-4 -4 -4 -10z"/>
<path d="M4041 859 c-1 -16 4 -26 14 -26 9 0 11 4 6 11 -4 6 -11 18 -14 26 -3
9 -6 5 -6 -11z"/>
<path d="M70 829 c0 -5 5 -7 10 -4 6 3 10 8 10 11 0 2 -4 4 -10 4 -5 0 -10 -5
-10 -11z"/>
<path d="M4249 827 c7 -7 14 -8 21 -1 6 6 2 10 -12 11 -16 2 -18 -1 -9 -10z"/>
<path d="M50 816 c0 -8 4 -17 9 -20 5 -4 7 3 4 14 -6 23 -13 26 -13 6z"/>
<path d="M3730 816 c0 -2 7 -7 16 -10 8 -3 12 -2 9 4 -6 10 -25 14 -25 6z"/>
<path d="M3690 779 c0 -5 5 -7 10 -4 6 3 10 8 10 11 0 2 -4 4 -10 4 -5 0 -10
-5 -10 -11z"/>
<path d="M40 765 c0 -8 -5 -15 -11 -15 -5 0 -7 -4 -4 -10 11 -17 21 -11 23 15
1 14 0 25 -3 25 -3 0 -5 -7 -5 -15z"/>
<path d="M3326 772 c-4 -7 -2 -12 3 -12 6 0 11 -10 11 -21 0 -15 -5 -20 -17
-17 -14 4 -18 -2 -20 -23 -2 -23 1 -27 19 -24 26 5 37 22 33 47 -2 11 2 18 11
18 8 0 14 5 14 10 0 6 -9 10 -19 10 -11 0 -21 5 -23 12 -3 9 -6 9 -12 0z"/>
<path d="M3844 726 c-7 -41 -6 -56 4 -66 8 -7 12 -28 9 -56 -2 -27 0 -44 7
-44 6 0 5 -4 -3 -9 -10 -7 -18 -5 -26 6 -10 13 -12 13 -23 0 -11 -12 -10 -15
5 -13 10 0 17 -4 16 -10 -3 -17 25 -13 33 5 7 18 6 86 -3 115 -3 10 -1 16 4
13 5 -3 14 3 21 14 7 10 8 19 3 19 -6 0 -8 16 -6 36 1 20 -1 32 -6 27 -4 -4
-9 -25 -11 -46 -1 -20 -5 -37 -9 -37 -4 0 -5 23 -2 50 7 66 0 64 -13 -4z"/>
<path d="M4236 772 c-3 -5 1 -9 9 -9 8 0 12 4 9 9 -3 4 -7 8 -9 8 -2 0 -6 -4
-9 -8z"/>
<path d="M2888 763 c6 -2 18 -2 25 0 6 3 1 5 -13 5 -14 0 -19 -2 -12 -5z"/>
<path d="M2930 756 c0 -8 4 -17 9 -20 5 -4 7 3 4 14 -6 23 -13 26 -13 6z"/>
<path d="M3271 754 c0 -11 3 -14 6 -6 3 7 2 16 -1 19 -3 4 -6 -2 -5 -13z"/>
<path d="M2903 735 c0 -8 4 -12 9 -9 5 3 6 10 3 15 -9 13 -12 11 -12 -6z"/>
<path d="M3660 744 c0 -1 7 -10 16 -18 14 -15 13 -16 -6 -16 -13 0 -20 -5 -17
-12 2 -7 10 -12 16 -10 7 1 10 -2 6 -8 -3 -6 -10 -8 -15 -5 -5 3 -7 -3 -5 -15
2 -11 -1 -22 -6 -25 -5 -4 -6 -11 -3 -17 4 -6 2 -8 -4 -4 -6 3 -12 -2 -14 -11
-3 -15 -5 -14 -10 5 -4 14 -2 20 4 16 6 -4 8 1 4 12 -3 11 -7 33 -8 51 -1 17
-6 29 -10 27 -4 -3 -6 -18 -4 -34 2 -17 0 -30 -4 -30 -4 0 -7 -17 -7 -37 0
-21 -3 -48 -7 -60 -6 -20 -4 -23 21 -22 17 1 21 3 11 6 -21 5 -24 43 -4 43 8
0 23 3 33 6 15 5 15 4 3 -5 -13 -9 -13 -12 -1 -23 11 -11 13 -11 6 1 -5 9 -4
12 3 7 18 -11 14 -36 -5 -36 -17 -1 -17 -1 0 -11 9 -6 15 -14 12 -19 -3 -5 -1
-11 5 -15 6 -4 10 8 10 29 0 42 15 56 26 24 4 -13 7 -26 6 -30 -1 -5 3 -8 9
-8 6 0 9 7 5 15 -3 8 -2 15 3 15 11 0 24 -48 16 -59 -3 -5 2 -12 11 -15 8 -3
12 -2 9 3 -3 5 0 13 5 16 7 5 5 12 -7 20 -16 12 -16 13 7 10 14 -1 17 0 7 2
-9 2 -22 13 -27 24 -9 16 -7 19 13 19 29 0 41 31 22 56 -10 14 -10 20 0 30 7
8 11 33 10 61 -3 60 -2 58 -20 43 -10 -9 -12 -17 -5 -30 9 -16 6 -17 -25 -10
-20 4 -35 4 -35 -1 0 -5 5 -9 12 -9 6 0 9 -2 6 -5 -9 -9 -38 6 -37 19 3 28 -2
43 -16 43 -8 0 -15 -2 -15 -3z m90 -112 c0 -4 -9 -8 -20 -9 -11 -1 -20 2 -20
8 0 5 9 9 20 9 11 0 20 -4 20 -8z m20 -28 c0 -8 -19 -13 -24 -6 -3 5 1 9 9 9
8 0 15 -2 15 -3z m-60 -14 c0 -5 -4 -10 -10 -10 -5 0 -10 5 -10 10 0 6 5 10
10 10 6 0 10 -4 10 -10z m20 -40 c0 -5 -4 -10 -10 -10 -5 0 -10 5 -10 10 0 6
5 10 10 10 6 0 10 -4 10 -10z"/>
<path d="M3096 716 c5 -19 2 -31 -7 -37 -11 -7 -11 -9 3 -9 9 0 21 -8 27 -17
9 -16 10 -16 8 4 0 12 -5 19 -9 17 -4 -3 -8 5 -8 18 0 13 -5 30 -10 38 -8 11
-9 7 -4 -14z"/>
<path d="M3220 725 c0 -22 4 -30 14 -27 4 1 15 -5 23 -15 8 -10 11 -12 8 -5
-4 7 1 23 12 34 10 12 13 18 6 15 -6 -4 -14 -3 -18 3 -10 16 -45 12 -45 -5z"/>
<path d="M3715 724 c23 -17 32 -18 32 -1 0 6 -12 13 -26 14 -24 1 -25 1 -6
-13z"/>
<path d="M3365 720 c-3 -5 -1 -10 4 -10 6 0 11 5 11 10 0 6 -2 10 -4 10 -3 0
-8 -4 -11 -10z"/>
<path d="M34 700 c1 -17 16 -31 16 -15 0 3 0 12 0 20 0 8 -4 15 -9 15 -4 0 -8
-9 -7 -20z"/>
<path d="M4195 709 c-4 -6 -5 -12 -2 -15 2 -3 7 2 10 11 7 17 1 20 -8 4z"/>
<path d="M4288 713 c7 -3 16 -2 19 1 4 3 -2 6 -13 5 -11 0 -14 -3 -6 -6z"/>
<path d="M3016 685 c-3 -9 0 -15 9 -15 9 0 12 6 9 15 -4 8 -7 15 -9 15 -2 0
-5 -7 -9 -15z"/>
<path d="M2780 686 c0 -2 7 -7 16 -10 8 -3 12 -2 9 4 -6 10 -25 14 -25 6z"/>
<path d="M2900 680 c0 -5 5 -10 11 -10 5 0 7 5 4 10 -3 6 -8 10 -11 10 -2 0
-4 -4 -4 -10z"/>
<path d="M4230 680 c-12 -8 -11 -10 8 -10 12 0 22 -4 22 -10 0 -5 5 -10 11
-10 8 0 9 4 0 13 -6 8 -8 17 -4 20 10 11 -20 8 -37 -3z"/>
<path d="M4190 670 c0 -5 5 -10 11 -10 5 0 7 5 4 10 -3 6 -8 10 -11 10 -2 0
-4 -4 -4 -10z"/>
<path d="M17 650 c3 -11 7 -20 9 -20 2 0 4 9 4 20 0 11 -4 20 -9 20 -5 0 -7
-9 -4 -20z"/>
<path d="M2810 660 c-8 -5 -12 -11 -9 -14 2 -3 11 -1 19 4 8 5 12 11 9 14 -2
3 -11 1 -19 -4z"/>
<path d="M2925 657 c-4 -10 -5 -21 -1 -24 10 -10 18 4 13 24 -4 17 -4 17 -12
0z"/>
<path d="M3898 663 c7 -3 16 -2 19 1 4 3 -2 6 -13 5 -11 0 -14 -3 -6 -6z"/>
<path d="M177 642 c-15 -16 -15 -19 -2 -19 8 0 13 3 10 5 -3 3 0 11 6 19 17
20 5 16 -14 -5z"/>
<path d="M3077 640 c-3 -12 0 -20 8 -20 14 0 27 25 18 34 -11 11 -21 6 -26
-14z"/>
<path d="M80 630 c-13 -9 -13 -10 0 -10 12 0 12 -2 2 -9 -11 -7 -11 -9 0 -13
9 -4 14 2 16 18 2 27 2 27 -18 14z"/>
<path d="M3008 617 c-3 -15 -2 -30 2 -32 12 -7 18 18 10 40 -6 17 -7 16 -12
-8z"/>
<path d="M3330 630 c0 -5 5 -10 11 -10 5 0 7 5 4 10 -3 6 -8 10 -11 10 -2 0
-4 -4 -4 -10z"/>
<path d="M3252 618 c-16 -16 -15 -29 1 -22 8 3 14 11 14 19 0 18 0 18 -15 3z"/>
<path d="M162 599 c2 -7 10 -15 17 -17 8 -3 12 1 9 9 -2 7 -10 15 -17 17 -8 3
-12 -1 -9 -9z"/>
<path d="M13 573 c-7 -17 -12 -81 -11 -163 0 -117 1 -128 9 -80 14 81 18 190
6 183 -5 -3 -7 0 -5 8 3 8 10 13 15 12 5 -1 9 14 9 33 0 41 -7 43 -23 7z"/>
<path d="M57 569 c4 -13 8 -18 11 -10 2 7 -1 18 -6 23 -8 8 -9 4 -5 -13z"/>
<path d="M2900 576 c0 -8 4 -17 9 -20 5 -4 7 3 4 14 -6 23 -13 26 -13 6z"/>
<path d="M2975 570 c3 -5 8 -10 11 -10 2 0 4 5 4 10 0 6 -5 10 -11 10 -5 0 -7
-4 -4 -10z"/>
<path d="M3500 525 c0 -14 2 -25 4 -25 2 0 6 11 8 25 3 14 1 25 -3 25 -5 0 -9
-11 -9 -25z"/>
<path d="M3531 535 c-1 -11 -5 -31 -8 -45 -3 -14 -6 -35 -6 -47 -1 -13 -5 -23
-10 -23 -5 0 -7 7 -4 15 4 8 2 17 -3 20 -6 4 -10 -3 -10 -14 0 -10 -6 -22 -12
-24 -7 -3 -1 -6 13 -6 32 -1 45 15 43 52 -1 17 4 27 12 27 8 0 14 5 14 11 0 5
-4 8 -9 4 -5 -3 -12 7 -14 22 -3 19 -5 22 -6 8z"/>
<path d="M3007 533 c-4 -3 -7 -20 -6 -37 l1 -31 9 34 c10 33 8 47 -4 34z"/>
<path d="M4781 523 c0 -11 3 -13 6 -5 2 6 10 9 15 6 7 -4 8 -2 4 4 -11 18 -26
14 -25 -5z"/>
<path d="M4977 533 c-3 -5 1 -14 9 -21 12 -10 14 -10 14 2 0 17 -16 30 -23 19z"/>
<path d="M2456 515 c4 -8 10 -15 15 -15 4 0 6 7 3 15 -4 8 -10 15 -15 15 -4 0
-6 -7 -3 -15z"/>
<path d="M62 505 c-11 -12 -10 -15 3 -15 8 0 15 7 15 15 0 18 -2 18 -18 0z"/>
<path d="M3581 502 c1 -9 4 -28 8 -42 l7 -25 6 27 c3 15 1 25 -3 22 -5 -3 -9
-1 -9 5 0 5 5 11 12 13 7 3 6 7 -5 11 -12 4 -17 1 -16 -11z"/>
<path d="M4956 485 c-3 -9 0 -15 9 -15 8 0 15 7 15 15 0 8 -4 15 -9 15 -5 0
-11 -7 -15 -15z"/>
<path d="M3475 480 c3 -6 1 -10 -6 -10 -7 0 -10 -3 -6 -6 3 -3 13 -2 22 4 16
8 16 9 1 15 -10 4 -15 3 -11 -3z"/>
<path d="M56 472 c-3 -5 1 -9 9 -9 8 0 12 4 9 9 -3 4 -7 8 -9 8 -2 0 -6 -4 -9
-8z"/>
<path d="M170 468 c0 -9 5 -20 10 -23 13 -8 13 5 0 25 -8 13 -10 13 -10 -2z"/>
<path d="M4610 471 c0 -6 4 -12 8 -15 5 -3 9 1 9 9 0 8 -4 15 -9 15 -4 0 -8
-4 -8 -9z"/>
<path d="M2971 421 c23 -19 46 -10 32 12 -3 5 -9 4 -13 -3 -5 -9 -9 -9 -14 -1
-4 6 -12 11 -18 11 -5 0 0 -9 13 -19z"/>
<path d="M2580 416 c0 -14 39 -48 51 -44 7 2 14 14 16 27 2 13 -1 20 -7 16 -5
-3 -10 -13 -10 -21 0 -8 -4 -14 -10 -14 -5 0 -7 8 -3 18 3 9 3 14 -2 10 -4 -4
-14 -3 -22 3 -7 6 -13 8 -13 5z"/>
<path d="M3151 404 c0 -11 3 -14 6 -6 3 7 2 16 -1 19 -3 4 -6 -2 -5 -13z"/>
<path d="M3191 404 c0 -11 3 -14 6 -6 3 7 2 16 -1 19 -3 4 -6 -2 -5 -13z"/>
<path d="M4579 418 c-6 -20 -6 -38 1 -38 12 0 31 26 23 33 -6 7 -22 10 -24 5z"/>
<path d="M4790 390 c-6 -11 -8 -20 -6 -20 3 0 10 9 16 20 6 11 8 20 6 20 -3 0
-10 -9 -16 -20z"/>
<path d="M2960 378 c0 -7 5 -20 11 -28 9 -12 10 -11 6 7 -3 12 0 24 7 27 6 2
3 5 -6 5 -10 1 -18 -5 -18 -11z"/>
<path d="M1475 369 c-3 -4 2 -6 10 -5 21 3 28 13 10 13 -9 0 -18 -4 -20 -8z"/>
<path d="M1140 361 c0 -6 4 -13 10 -16 6 -3 7 1 4 9 -7 18 -14 21 -14 7z"/>
<path d="M1100 336 c0 -2 9 -6 20 -9 11 -3 18 -1 14 4 -5 9 -34 13 -34 5z"/>
<path d="M1164 332 c-6 -4 -13 -15 -17 -25 -4 -10 -11 -15 -17 -12 -5 3 -10 1
-10 -4 0 -6 7 -11 15 -11 24 0 30 4 28 20 -1 8 4 18 10 22 6 4 9 9 6 12 -2 3
-9 2 -15 -2z"/>
<path d="M1301 333 c-1 -6 -4 -20 -7 -30 -5 -17 -5 -17 6 0 6 10 9 23 6 30 -3
9 -5 9 -5 0z"/>
<path d="M2167 300 c3 -11 9 -17 14 -14 5 3 9 -4 9 -15 0 -12 5 -21 11 -21 6
0 9 6 6 14 -3 8 -1 17 6 20 7 2 2 8 -10 11 -13 4 -23 11 -23 16 0 5 -4 9 -9 9
-5 0 -7 -9 -4 -20z"/>
<path d="M3362 273 c6 -7 8 -19 5 -27 -4 -10 -1 -13 7 -10 7 3 20 -2 29 -11
14 -14 16 -13 13 12 -2 16 -4 33 -5 39 0 6 -14 11 -30 10 -22 -1 -27 -4 -19
-13z"/>
<path d="M3438 259 c16 -19 32 -17 32 5 0 8 -11 14 -24 14 -22 0 -23 -2 -8
-19z"/>
<path d="M1205 260 c-3 -5 -1 -10 4 -10 6 0 11 5 11 10 0 6 -2 10 -4 10 -3 0
-8 -4 -11 -10z"/>
<path d="M2085 260 c3 -5 12 -7 20 -3 21 7 19 13 -6 13 -11 0 -18 -4 -14 -10z"/>
<path d="M2165 260 c-3 -5 -13 -6 -23 -3 -9 3 -14 3 -11 -1 13 -14 46 -14 46
0 0 16 -4 18 -12 4z"/>
<path d="M1266 251 c-4 -7 -5 -15 -2 -18 9 -9 19 4 14 18 -4 11 -6 11 -12 0z"/>
<path d="M1296 242 c-2 -4 4 -8 14 -8 10 0 16 4 14 8 -3 4 -9 8 -14 8 -5 0
-11 -4 -14 -8z"/>
<path d="M2734 231 c0 -11 8 -22 17 -24 13 -4 14 -1 5 19 -13 29 -22 31 -22 5z"/>
<path d="M2211 221 c25 -20 39 -19 39 2 0 8 -3 8 -9 -1 -6 -10 -10 -10 -21 3
-7 8 -17 15 -22 15 -6 0 0 -9 13 -19z"/>
<path d="M2410 230 c0 -5 5 -10 10 -10 6 0 10 5 10 10 0 6 -4 10 -10 10 -5 0
-10 -4 -10 -10z"/>
<path d="M2661 218 c6 -10 7 -28 4 -38 -4 -11 -2 -20 3 -20 15 0 21 25 11 41
-6 10 -2 16 14 20 19 5 18 6 -10 10 -28 5 -31 3 -22 -13z"/>
<path d="M1343 213 c0 -18 23 -17 30 1 4 10 0 14 -12 13 -10 0 -18 -7 -18 -14z"/>
<path d="M2035 220 c-3 -6 1 -7 9 -4 18 7 21 14 7 14 -6 0 -13 -4 -16 -10z"/>
<path d="M2153 212 c2 -12 6 -24 10 -28 3 -4 4 4 2 16 -6 30 -16 40 -12 12z"/>
<path d="M2978 213 c-5 -18 -2 -23 12 -23 28 0 31 -14 15 -60 -18 -52 -19 -50
3 -50 13 0 14 2 3 9 -9 6 -10 11 -2 15 6 4 9 12 6 17 -4 5 -2 9 3 9 5 0 9 6 9
13 0 6 3 22 7 35 6 17 4 23 -6 21 -26 -3 -37 1 -40 19 -3 14 -5 13 -10 -5z"/>
<path d="M2185 210 c-3 -5 -1 -10 4 -10 6 0 11 5 11 10 0 6 -2 10 -4 10 -3 0
-8 -4 -11 -10z"/>
<path d="M1171 193 c7 -10 15 -20 16 -22 2 -2 3 3 3 11 0 9 -7 19 -16 22 -15
6 -15 4 -3 -11z"/>
<path d="M2083 195 c0 -8 6 -15 13 -15 8 0 11 6 8 15 -4 8 -9 15 -13 15 -4 0
-8 -7 -8 -15z"/>
<path d="M1308 193 c7 -3 16 -2 19 1 4 3 -2 6 -13 5 -11 0 -14 -3 -6 -6z"/>
<path d="M2410 190 c-9 -6 -10 -10 -3 -10 6 0 15 5 18 10 8 12 4 12 -15 0z"/>
<path d="M1233 177 c-3 -6 -1 -7 5 -3 7 4 12 2 12 -4 0 -6 4 -9 9 -6 5 4 11 1
13 -6 3 -7 7 -3 10 9 4 17 1 21 -18 21 -14 0 -27 -5 -31 -11z"/>
<path d="M2747 170 c-3 -11 -1 -20 4 -20 5 0 9 9 9 20 0 11 -2 20 -4 20 -2 0
-6 -9 -9 -20z"/>
<path d="M3046 174 c-5 -14 -4 -15 9 -4 17 14 19 20 6 20 -5 0 -12 -7 -15 -16z"/>
<path d="M1385 160 c-3 -11 -12 -20 -18 -20 -7 0 -6 -4 3 -10 11 -7 17 -5 22
8 5 13 7 12 7 -7 1 -16 5 -21 15 -18 8 3 17 1 20 -6 3 -7 3 2 1 18 -2 17 -4
36 -4 43 -2 20 -39 14 -46 -8z"/>
<path d="M2975 170 c-3 -5 -1 -10 4 -10 6 0 11 5 11 10 0 6 -2 10 -4 10 -3 0
-8 -4 -11 -10z"/>
<path d="M3190 176 c0 -2 9 -6 20 -9 11 -3 18 -1 14 4 -5 9 -34 13 -34 5z"/>
<path d="M1290 150 c0 -5 5 -10 11 -10 5 0 7 5 4 10 -3 6 -8 10 -11 10 -2 0
-4 -4 -4 -10z"/>
<path d="M2593 146 c3 -8 2 -18 -2 -20 -5 -3 -6 -17 -3 -31 3 -19 0 -25 -14
-25 -16 0 -17 2 -4 10 12 7 12 12 2 22 -10 10 -14 9 -18 -8 -4 -14 -13 -20
-32 -19 -47 2 -71 -30 -29 -38 19 -4 18 -4 -5 -6 -18 0 -28 -7 -28 -16 0 -8 5
-15 10 -15 6 0 10 4 10 9 0 4 11 6 25 4 21 -5 24 -2 20 17 -4 21 -3 21 13 6
15 -12 21 -13 31 -3 11 10 13 8 8 -10 -4 -19 -1 -23 21 -23 24 0 25 1 7 14
-13 9 -16 19 -10 32 4 10 7 27 6 37 -1 9 3 17 8 17 6 0 11 5 11 11 0 5 -4 8
-9 4 -6 -3 -9 4 -8 15 1 12 8 20 19 20 9 0 16 -6 14 -12 -1 -7 -1 -10 1 -5 3
4 9 7 14 7 6 0 7 -4 4 -10 -3 -5 -1 -10 4 -10 6 0 11 5 11 11 0 5 5 7 10 4 6
-3 10 -1 10 4 0 6 -3 11 -7 12 -5 0 -28 3 -52 6 -37 4 -43 3 -38 -11z"/>
<path d="M1990 139 c0 -5 5 -7 10 -4 6 3 10 8 10 11 0 2 -4 4 -10 4 -5 0 -10
-5 -10 -11z"/>
<path d="M2814 138 c-3 -4 -3 -8 0 -8 10 0 -30 -36 -47 -43 -10 -4 -17 -1 -18
6 0 7 -4 3 -9 -8 -5 -11 -9 -14 -9 -7 -1 8 -6 12 -13 10 -10 -4 -17 -23 -20
-55 -2 -19 -28 -16 -28 3 0 8 5 12 10 9 6 -3 10 -1 10 4 0 6 -3 12 -7 12 -36
6 -52 4 -69 -9 -18 -14 -18 -14 4 -9 12 3 22 1 22 -5 0 -5 5 -6 10 -3 17 10
11 -7 -7 -20 -13 -10 -6 -12 44 -13 53 -1 62 2 66 20 3 12 10 17 17 13 6 -4
26 -9 43 -12 18 -3 38 -10 45 -15 9 -8 12 -6 12 5 0 21 29 30 36 12 4 -8 10
-15 14 -15 11 0 19 49 9 56 -5 3 -9 -2 -9 -11 0 -10 -5 -13 -11 -9 -7 4 -25 7
-42 8 -32 1 -47 30 -22 40 9 3 12 -2 10 -15 -2 -11 0 -17 6 -13 6 3 8 9 5 12
-4 3 1 16 10 30 8 13 13 26 10 29 -9 10 -66 11 -72 1z m26 -29 c-6 -11 -16
-16 -26 -12 -15 5 -15 7 0 15 9 5 14 13 11 19 -3 5 1 6 9 3 12 -5 13 -11 6
-25z m-25 -27 c19 -13 11 -37 -10 -34 -26 5 -29 8 -22 27 7 16 16 19 32 7z
m-75 -68 c0 -2 -7 -4 -15 -4 -8 0 -15 4 -15 10 0 5 7 7 15 4 8 -4 15 -8 15
-10z"/>
<path d="M2790 69 c0 -5 5 -7 10 -4 6 3 10 8 10 11 0 2 -4 4 -10 4 -5 0 -10
-5 -10 -11z"/>
<path d="M2731 132 c-1 -7 -5 -10 -11 -7 -5 3 -7 0 -4 -8 3 -9 14 -12 29 -9
14 2 22 8 19 13 -3 5 -9 7 -14 4 -4 -3 -11 1 -13 7 -4 10 -6 10 -6 0z"/>
<path d="M2936 123 c5 -5 12 -12 16 -18 4 -6 8 -2 8 8 0 9 -7 17 -17 17 -9 0
-12 -3 -7 -7z"/>
<path d="M2971 114 c0 -11 3 -14 6 -6 3 7 2 16 -1 19 -3 4 -6 -2 -5 -13z"/>
<path d="M898 108 c5 -5 16 -8 23 -6 8 3 3 7 -10 11 -17 4 -21 3 -13 -5z"/>
<path d="M3406 103 c-6 -14 -5 -15 5 -6 7 7 10 15 7 18 -3 3 -9 -2 -12 -12z"/>
<path d="M978 101 c8 -4 12 -10 11 -12 -2 -2 1 -12 7 -21 8 -15 10 -14 20 7 9
18 9 22 -1 18 -7 -2 -16 0 -20 6 -3 6 -12 11 -18 11 -8 0 -8 -3 1 -9z"/>
<path d="M1748 96 c-22 -16 -24 -30 -4 -23 10 4 13 1 10 -7 -3 -8 0 -17 7 -22
8 -5 10 -3 4 6 -6 10 -4 12 8 7 20 -7 22 4 5 21 -9 9 -8 12 5 12 12 0 17 -8
17 -26 0 -21 4 -25 18 -19 9 4 23 8 30 9 18 3 37 25 28 33 -4 4 -11 1 -16 -7
-8 -12 -10 -12 -15 2 -4 10 -15 15 -26 13 -10 -2 -21 0 -24 6 -8 13 -27 11
-47 -5z"/>
<path d="M2052 101 c-11 -7 -11 -9 0 -14 9 -3 15 1 15 9 0 8 -1 14 -1 14 -1 0
-7 -4 -14 -9z"/>
<path d="M930 76 c-5 -13 -15 -26 -22 -29 -9 -4 -8 -6 4 -6 9 -1 20 9 24 22 4
12 12 25 18 29 8 5 7 8 -2 8 -7 0 -17 -11 -22 -24z"/>
<path d="M3785 90 c-3 -5 -1 -10 4 -10 6 0 11 5 11 10 0 6 -2 10 -4 10 -3 0
-8 -4 -11 -10z"/>
<path d="M900 80 c-9 -6 -10 -10 -3 -10 6 0 15 5 18 10 8 12 4 12 -15 0z"/>
<path d="M2620 85 c0 -7 30 -13 34 -7 3 4 -4 9 -15 9 -10 1 -19 0 -19 -2z"/>
<path d="M2920 86 c0 -2 7 -7 16 -10 8 -3 12 -2 9 4 -6 10 -25 14 -25 6z"/>
<path d="M3651 64 c0 -11 3 -14 6 -6 3 7 2 16 -1 19 -3 4 -6 -2 -5 -13z"/>
<path d="M966 59 c2 -4 -4 -10 -13 -12 -17 -4 -17 -5 0 -6 9 0 17 -8 17 -16 0
-17 -16 -20 -25 -5 -9 15 -22 12 -29 -5 -4 -12 3 -15 30 -15 33 0 36 2 32 25
-3 14 -1 25 3 25 5 0 9 4 9 8 0 5 -7 9 -15 9 -8 0 -12 -4 -9 -8z"/>
<path d="M3535 47 c-11 -11 -14 -17 -7 -13 8 5 12 0 13 -16 0 -13 3 -17 6 -9
5 11 7 11 15 0 7 -10 8 -8 5 9 -4 17 -1 22 16 23 21 1 21 2 2 6 -11 3 -22 9
-25 13 -3 4 -14 -2 -25 -13z"/>
<path d="M3787 49 c4 -13 8 -18 11 -10 2 7 -1 18 -6 23 -8 8 -9 4 -5 -13z"/>
<path d="M2952 48 c-7 -7 -12 -16 -12 -21 0 -5 7 -1 16 8 9 9 14 18 12 20 -2
3 -10 -1 -16 -7z"/>
<path d="M3110 56 c0 -2 7 -7 16 -10 8 -3 12 -2 9 4 -6 10 -25 14 -25 6z"/>
<path d="M3468 53 c6 -2 18 -2 25 0 6 3 1 5 -13 5 -14 0 -19 -2 -12 -5z"/>
<path d="M1145 40 c-18 -7 -18 -8 8 -15 15 -4 31 -5 34 -1 4 3 -1 6 -11 6 -9
0 -14 5 -11 10 7 11 7 11 -20 0z"/>
<path d="M1645 29 c-4 -6 -4 -13 -1 -16 3 -4 6 -1 6 5 0 6 8 13 18 15 15 4 15
5 0 6 -9 0 -20 -4 -23 -10z"/>
<path d="M3450 20 c0 -26 6 -26 13 0 3 11 1 20 -4 20 -5 0 -9 -9 -9 -20z"/>
<path d="M3482 20 c0 -14 2 -19 5 -12 2 6 2 18 0 25 -3 6 -5 1 -5 -13z"/>
<path d="M3620 36 c0 -2 9 -6 20 -9 11 -3 20 -1 20 4 0 5 -9 9 -20 9 -11 0
-20 -2 -20 -4z"/>
<path d="M1736 15 c-3 -9 0 -15 9 -15 8 0 15 7 15 15 0 8 -4 15 -9 15 -5 0
-11 -7 -15 -15z"/>
<path d="M2960 21 c0 -6 4 -13 10 -16 6 -3 7 1 4 9 -7 18 -14 21 -14 7z"/>
<path d="M3596 13 c-6 -14 -5 -15 5 -6 7 7 10 15 7 18 -3 3 -9 -2 -12 -12z"/>
<path d="M3930 15 c0 -8 5 -15 10 -15 6 0 10 7 10 15 0 8 -4 15 -10 15 -5 0
-10 -7 -10 -15z"/>
<path d="M1800 10 c0 -5 7 -10 15 -10 8 0 15 5 15 10 0 6 -7 10 -15 10 -8 0
-15 -4 -15 -10z"/>
<path d="M2760 8 c0 -4 16 -8 35 -8 19 0 35 2 35 4 0 2 -16 6 -35 8 -19 2 -35
0 -35 -4z"/>
<path d="M3630 10 c0 -6 7 -10 15 -10 8 0 15 2 15 4 0 2 -7 6 -15 10 -8 3 -15
1 -15 -4z"/>
</g>
</svg>
